<?xml version="1.0" standalone="no"?>
<!DOCTYPE svg PUBLIC "-//W3C//DTD SVG 1.1//EN" "http://www.w3.org/Graphics/SVG/1.1/DTD/svg11.dtd" >
<svg xmlns="http://www.w3.org/2000/svg">
<metadata></metadata>
<defs>
<font id="optimaitalic" horiz-adv-x="1136" >
<font-face units-per-em="2048" ascent="1638" descent="-410" />
<missing-glyph horiz-adv-x="559" />
<glyph horiz-adv-x="0" />
<glyph unicode="&#xd;" horiz-adv-x="0" />
<glyph unicode=" "  horiz-adv-x="559" />
<glyph unicode="&#x09;" horiz-adv-x="559" />
<glyph unicode="&#xa0;" horiz-adv-x="559" />
<glyph unicode="!" horiz-adv-x="672" d="M224 112q16 59 58.5 89t91.5 30q47 0 79.5 -26.5t32.5 -70.5q0 -17 -6 -38q-15 -54 -57.5 -86t-90.5 -32q-45 0 -76.5 33.5t-31.5 100.5zM384 352l80 880q6 91 46.5 144t87.5 53q36 0 60 -32.5t24 -91.5t-26 -137l-224 -816h-48z" />
<glyph unicode="&#x22;" horiz-adv-x="672" d="M252 842q0 19 4 38l96 464q6 39 30.5 58.5t55.5 19.5q26 0 44 -14t18 -40q0 -12 -4 -24l-96 -448q-6 -50 -38.5 -83.5t-63.5 -33.5q-46 0 -46 63zM588 848q0 17 4 32l80 448q6 47 34.5 74.5t58.5 27.5q24 0 39.5 -17t15.5 -49q0 -19 -4 -36l-80 -448q-6 -49 -31 -75.5 t-56 -26.5q-25 0 -43 19t-18 51z" />
<glyph unicode="#" d="M128 432l32 128h240l80 256h-224l32 128h240l144 416h128l-144 -416h256l144 416h128l-144 -416h192l-32 -128h-208l-96 -256h208l-16 -128h-224l-144 -432h-128l144 432h-256l-160 -432h-128l160 432h-224zM528 560h256l80 256h-256z" />
<glyph unicode="$" d="M144 80q36 36 58 89.5t22 102.5h32q20 -60 62 -104.5t91 -67t93 -22.5q18 0 26 2l112 560q-103 29 -163 66t-86.5 76.5t-32.5 75.5t-6 86q20 225 156 314.5t276 117.5l32 160q24 -12 48 -12t48 12l-32 -160q69 0 125.5 -13.5t96 -34.5t66.5 -48q-20 -20 -46 -73t-50 -103 h-16q-32 107 -81 141.5t-111 34.5l-96 -480q132 -63 193 -109t78 -84.5t17 -95.5v-31q0 -78 -36.5 -179.5t-137 -190t-274.5 -110.5l-32 -224q-64 0 -112 -16l48 224q-80 0 -140 5t-122 26t-106 65zM526 1019q0 -55 44.5 -109t101.5 -78l96 448q-86 -34 -147 -84t-93 -156 q-2 -14 -2 -21zM624 96q75 7 133.5 57.5t90.5 120t32 126.5q0 45 -22.5 83t-59 65t-78.5 44z" />
<glyph unicode="%" horiz-adv-x="1808" d="M288 960q0 94 46.5 187t140.5 153t229 60q167 0 219.5 -87.5t52.5 -200.5q0 -57 -48.5 -147t-142.5 -160t-225 -77q-126 0 -199 67t-73 205zM429 916q0 -76 34.5 -120t96.5 -44q82 0 148.5 73t91.5 183q18 79 18 143q0 74 -27 117.5t-87 43.5q-92 0 -161.5 -79 t-94.5 -193q-19 -67 -19 -124zM432 -80l1072 1504q24 -12 56 -12t56 12l-1072 -1504q-24 12 -56 12t-56 -12zM1116 248q0 20 4 56q17 92 70.5 172t141.5 130t204 50q157 0 198.5 -86t41.5 -218q0 -92 -54 -182t-144.5 -146.5t-193.5 -56.5q-16 0 -24 1q-131 10 -187.5 91 t-56.5 189zM1261 173q0 -121 99 -141q16 -2 24 -2q54 0 105.5 33t89.5 98t53 159q12 75 12 125q0 75 -28.5 106.5t-95.5 40.5q-106 0 -156.5 -78.5t-83.5 -209.5q-19 -77 -19 -131z" />
<glyph unicode="&#x26;" horiz-adv-x="1472" d="M192 240q6 106 55 192t119 147.5t117.5 90.5t172.5 98q-67 96 -67 227q0 99 42.5 185.5t129.5 141t215 54.5q122 0 180 -45t58 -121q0 -71 -49 -154.5t-132.5 -152.5t-184.5 -103l272 -432q84 84 172 194t148 206q32 -64 64 -96q-50 -66 -98.5 -120.5t-105 -113 t-132.5 -134.5l192 -304q-72 12 -134 12t-122 -12l-96 160q-81 -73 -151 -115t-145.5 -59.5t-183.5 -17.5q-154 0 -245 75t-91 197zM384 304q0 -61 34 -115.5t95 -87t135 -32.5q165 0 328 155l-288 480q-7 -6 -85.5 -63.5t-114.5 -95t-64.5 -96.5t-39.5 -145zM753 1055 q0 -121 79 -207q101 51 183.5 157.5t82.5 192.5t-90 114q-29 8 -51 8q-57 0 -103.5 -37t-73.5 -98t-27 -130z" />
<glyph unicode="'" horiz-adv-x="560" d="M272 864l256 496q37 68 91 68q28 0 48.5 -21.5t20.5 -51.5q0 -37 -32 -75l-352 -432z" />
<glyph unicode="(" horiz-adv-x="560" d="M208 432q6 130 45 283.5t109.5 310t169.5 290.5t220 220l32 -48q-107 -124 -180.5 -243t-126 -256.5t-93.5 -316.5q-37 -193 -37 -345q0 -266 117 -487l-80 -32q-60 109 -95 187.5t-52.5 146t-23 132t-5.5 158.5z" />
<glyph unicode=")" horiz-adv-x="560" d="M48 -144q90 84 165 211.5t130 270t84.5 263t36.5 199.5q8 114 8 188q0 336 -104 500l64 32q178 -249 178 -566q0 -18 -2 -58q-12 -193 -56 -357.5t-115 -302.5t-161 -247t-196 -197z" />
<glyph unicode="*" horiz-adv-x="896" d="M272 896l320 144l-272 112q64 64 96 112l208 -160l32 304q36 -12 64 -12t64 12l-96 -320l304 192q0 -40 5 -59t27 -53l-304 -128l256 -128q-48 -48 -80 -112l-224 176l-16 -304q-36 12 -72 12t-72 -12l96 304l-272 -176z" />
<glyph unicode="+" horiz-adv-x="1232" d="M176 448l32 144h448l96 448h144l-96 -448h464l-32 -144h-464l-80 -448h-144l80 448h-448z" />
<glyph unicode="," horiz-adv-x="560" d="M16 -336l224 432q38 80 78.5 117.5t76.5 37.5q26 0 42.5 -19t16.5 -48q0 -43 -38 -88l-352 -432h-48z" />
<glyph unicode="-" horiz-adv-x="672" d="M160 384l32 144h512l-32 -144h-512z" />
<glyph unicode="." horiz-adv-x="560" d="M176 80q7 74 51.5 115.5t99.5 41.5q44 0 74.5 -28t30.5 -81q-6 -74 -48.5 -115.5t-95.5 -41.5q-42 0 -74 28t-38 81z" />
<glyph unicode="/" horiz-adv-x="560" d="M-112 -224l928 1776q24 -12 50 -12t62 12l-928 -1776q-24 12 -50 12t-62 -12z" />
<glyph unicode="0" d="M179 385q0 135 45 335q20 102 66.5 214.5t123.5 219t182.5 172.5t235.5 66q132 0 217.5 -60.5t124.5 -165.5t39 -244q0 -76 -13 -170q-35 -198 -100.5 -345t-153 -240.5t-189.5 -138t-213 -44.5q-365 13 -365 401zM362 380q0 -160 52.5 -233t145.5 -83q9 -1 26 -1 q129 0 221.5 121t141.5 276.5t59 259.5q23 133 23 246q0 101 -18 177.5t-59 122.5t-106 46q-117 0 -200 -64.5t-131 -160t-73 -188t-44 -195.5q-38 -193 -38 -324z" />
<glyph unicode="1" d="M416 1216q56 17 148.5 54.5t190 82.5t141.5 71l32 -16l-272 -1408q-36 12 -82 12t-94 -12l256 1264l-256 -144q0 24 -20 54t-44 42z" />
<glyph unicode="2" d="M80 0v32q42 36 167 139.5t229 193t178.5 163t113.5 128.5q90 102 135 214t45 208q0 58 -15 101.5t-44.5 69.5t-72.5 31q-26 2 -38 2q-109 0 -186 -58t-112 -152h-32l-48 112q66 66 131.5 108t139 63t161.5 21q73 0 147.5 -34.5t124 -99t49.5 -148.5q0 -14 -1 -22 q-13 -117 -51.5 -199.5t-140.5 -184.5l-608 -544q528 0 640 32q-32 -128 -32 -176h-880z" />
<glyph unicode="3" d="M128 64l48 112l32 16q35 -64 102 -99t146 -35q94 0 180.5 47.5t141.5 141.5t55 224q0 27 -1 41q-15 167 -219 167q-43 0 -101 -7q16 32 16 96q36 -6 69 -6q113 0 183.5 59t101 138.5t30.5 144.5q0 68 -40.5 130t-135.5 62q-35 0 -79.5 -17t-89 -51t-71.5 -76l-32 -16 l-32 96q46 53 103.5 85t116 45.5t100.5 13.5q159 0 256 -66.5t97 -167.5q0 -15 -1 -22q-7 -103 -64.5 -188.5t-134.5 -136.5t-137 -59q87 -21 140.5 -42t93 -69.5t39.5 -132.5q0 -18 -1 -28q-6 -134 -72.5 -228.5t-163 -149.5t-189 -78.5t-151.5 -23.5q-64 0 -121.5 4 t-118.5 22.5t-96 53.5z" />
<glyph unicode="4" d="M112 400v16l848 944h128l-160 -848l192 16q-23 -71 -23 -109q0 -22 7 -35l-192 16l-80 -400q-48 12 -80 12t-80 -12l80 400h-640zM304 512h464l128 656z" />
<glyph unicode="5" d="M112 64l64 144h16q42 -70 115 -110.5t158 -40.5q91 0 173 50.5t138.5 159.5t71.5 277q0 54 -29.5 98t-81.5 70t-120 26q-107 0 -217 -66l-32 32q28 84 78 323.5t50 316.5l32 32h640l16 -32q-12 -34 -25 -72t-23 -88q-45 15 -141.5 21.5t-200 8.5t-218.5 2l-96 -432 q111 51 228 51q90 0 166 -32.5t121.5 -100.5t45.5 -169q0 -7 -0.5 -11t-0.5 -10q-4 -122 -56.5 -223.5t-138 -171t-193.5 -106.5t-219 -37q-180 0 -321 90z" />
<glyph unicode="6" d="M190 352q0 16 2 48q25 204 88 375t166 304.5t243.5 208.5t310.5 75q36 0 72 -3l16 -96q-60 20 -120 20q-182 0 -316.5 -180t-219.5 -448q29 43 88.5 80t136.5 58t149 21q135 0 225 -73t90 -227q0 -23 -1 -35q-9 -116 -61.5 -215.5t-131 -165.5t-175 -101t-188.5 -35 q-104 0 -188.5 42.5t-135 130.5t-50.5 216zM364 299q0 -71 30 -128.5t85.5 -90t128.5 -32.5q92 0 186.5 107.5t117.5 276.5q11 44 11 85q0 88 -49 145.5t-154 57.5q-235 0 -336 -304q-20 -62 -20 -117z" />
<glyph unicode="7" d="M160 -16v32q112 137 280.5 341t263 320t198.5 250.5t202 272.5q-51 0 -119 -2t-206.5 -8t-225 -11.5t-153.5 -10.5q38 58 38 138q0 28 -6 54h880v-80q-167 -206 -335.5 -418t-325.5 -416t-347 -462q-36 12 -72 12t-72 -12z" />
<glyph unicode="8" d="M206 268q0 100 52 204.5t141 181t193 98.5q-82 41 -129 93.5t-47 130.5q0 124 69 217t178 140t223 47q133 0 226.5 -62.5t103.5 -181.5q1 -8 1 -24q0 -84 -45 -153.5t-117 -118.5t-143 -72q123 -30 186 -111.5t63 -190.5q0 -117 -71.5 -233.5t-205 -190.5t-308.5 -74 q-126 3 -209.5 44t-122 106.5t-38.5 149.5zM392 279q0 -94 52.5 -165.5t147.5 -81.5q7 -1 22 -1q82 0 156.5 51.5t124.5 139t65 194.5q2 17 2 51q0 118 -52.5 185.5t-157.5 67.5q-58 0 -114 -27.5t-103 -77.5t-82 -117.5t-53 -145.5q-8 -38 -8 -73zM588 963q0 -81 49 -125 t123 -44q95 0 174 70t90 192q8 35 8 64q0 82 -50 134t-123 52t-141 -57.5t-110 -176.5q-20 -59 -20 -109z" />
<glyph unicode="9" d="M224 16q7 15 7 32q0 7 -1.5 19.5t-3.5 25t-2 19.5l16 16q82 -67 174 -67q107 0 214.5 93t203.5 278q80 160 96 288q-76 -90 -169 -136t-187 -46q-132 0 -224 88t-92 238q0 96 40 193t113.5 177t174 127t216.5 47q198 0 275 -127t77 -337q-12 -124 -39.5 -234.5t-75 -216 t-114.5 -197.5t-155 -168q-72 -64 -176.5 -107.5t-203.5 -43.5q-93 0 -164 39zM448 880q0 -72 22.5 -126t65.5 -84t104 -30q84 0 162.5 61.5t126.5 155t48 176.5q0 15 -1 23q0 100 -31.5 186t-144.5 86q-92 0 -161 -47.5t-113 -120.5t-62 -152q-16 -72 -16 -128z" />
<glyph unicode=":" horiz-adv-x="560" d="M169 63q0 37 20 74.5t59.5 62t87.5 24.5q43 -4 66 -32.5t23 -70.5q0 -60 -45.5 -106.5t-123.5 -46.5q-43 4 -65 30.5t-22 64.5zM312 816q0 56 41.5 100t110.5 44q51 0 76 -27t25 -70q0 -59 -42.5 -109t-106.5 -50q-50 6 -77 37.5t-27 74.5z" />
<glyph unicode=";" horiz-adv-x="560" d="M32 -320l224 464q23 55 57.5 81t67.5 26q30 0 49 -18t19 -50q0 -48 -49 -103l-336 -416zM354 827q0 59 44.5 104t129.5 45q36 0 58.5 -34t22.5 -80q0 -59 -39.5 -100.5t-121.5 -41.5q-43 0 -68.5 31t-25.5 76z" />
<glyph unicode="&#x3c;" horiz-adv-x="1232" d="M192 464l16 128l1136 480l-32 -144l-944 -400l784 -416l-16 -144z" />
<glyph unicode="=" horiz-adv-x="1232" d="M144 256l32 144h1040l-32 -144h-1040zM224 656l32 144h1040l-32 -144h-1040z" />
<glyph unicode="&#x3e;" horiz-adv-x="1232" d="M96 -16l32 144l928 400l-768 400l16 144l960 -496l-32 -112z" />
<glyph unicode="?" horiz-adv-x="784" d="M267 83q0 24 5 45q17 54 55 83t81 29q46 0 75 -32t29 -96q-6 -57 -50.5 -93.5t-97.5 -36.5q-41 0 -69 25.5t-28 75.5zM288 560q0 165 224 352l96 80q73 56 109.5 120t36.5 118q0 58 -37.5 94.5t-98.5 36.5q-91 0 -202 -81v96q34 34 95 53t126 19q70 0 128.5 -21t94.5 -66 t36 -113q0 -112 -42.5 -194t-102.5 -139t-239 -211q-38 -32 -67 -87.5t-29 -97.5q0 -78 88 -78q27 0 56 7l16 -16l-32 -48q-22 -18 -64 -18q-70 0 -131 51.5t-61 142.5z" />
<glyph unicode="@" horiz-adv-x="1632" d="M218 545q0 90 22 191q31 129 106 253t188 223t263.5 160.5t322.5 67.5q104 0 205.5 -32.5t187.5 -99.5t134.5 -163t48.5 -217q0 -114 -56 -231t-145 -214.5t-188.5 -156t-179.5 -58.5q-23 0 -39 4q-104 26 -128 144q-24 -49 -106.5 -88.5t-165.5 -39.5q-107 8 -158 80 t-51 171q0 81 33 149q69 151 202 259.5t310 108.5q65 0 105 -34t55 -78l32 96h192l-256 -560q-8 -23 -8 -46q0 -56 52 -56q31 0 68 22q65 32 130 100.5t111.5 163.5t62.5 200q3 24 3 49q0 81 -32.5 154.5t-90.5 132t-139.5 93.5t-172.5 35q-125 0 -248 -43.5t-229.5 -125.5 t-186 -198t-120.5 -257q-21 -82 -21 -156q0 -138 68.5 -241t192 -161t288.5 -66q91 0 204 36t211 102t145 150h144q-35 -79 -140.5 -173.5t-261.5 -160.5t-334 -66q-137 0 -282.5 56.5t-246.5 186.5t-101 334zM653 492q0 -77 51 -108q21 -9 41 -9q67 0 132 70.5t163 210.5 q72 132 72 218t-72 86q-83 -12 -157 -71t-147 -169q-83 -124 -83 -228z" />
<glyph unicode="A" horiz-adv-x="1360" d="M0 0l912 1424h48l352 -1424q-60 12 -112 12t-112 -12q-53 343 -112 560h-496q-168 -288 -304 -560q-36 12 -82 12t-94 -12zM544 656h416l-112 496z" />
<glyph unicode="B" horiz-adv-x="1248" d="M176 0l272 1408h352q245 0 356.5 -55t111.5 -180q0 -28 -4 -53q-16 -103 -70 -179.5t-135 -124t-179 -64.5q122 -17 213 -79t91 -209q0 -78 -38.5 -161t-107.5 -150.5t-168.5 -110t-213.5 -42.5h-480zM384 80h208q105 0 195 57t144 146t54 172q0 99 -76.5 164t-236.5 69 h-176zM512 784h176q110 0 198 51t138 129.5t50 155.5q0 85 -62.5 139t-188.5 54q-25 0 -39 -1h-176z" />
<glyph unicode="C" horiz-adv-x="1360" d="M206 510q0 20 2 66q6 147 62 292.5t168 270t288 202t410 83.5q126 0 236 -30.5t180 -65.5l-64 -160l-32 -16q-46 76 -103.5 114t-127 50t-169.5 12q-75 0 -175.5 -39.5t-202.5 -129.5t-178.5 -240.5t-99.5 -358.5q-1 -12 -1 -37q0 -130 51.5 -235t149.5 -169t232 -71 q235 0 464 160l-16 -128q-76 -46 -158.5 -74.5t-165.5 -41t-156 -12.5q-157 0 -289.5 48t-218.5 172t-86 338z" />
<glyph unicode="D" horiz-adv-x="1584" d="M192 0l288 1408h576q246 0 375 -58t174.5 -156t45.5 -239q0 -44 -3 -91q-10 -164 -75 -321t-180 -279.5t-278.5 -193t-363.5 -70.5h-31h-528zM416 112q134 -25 253 -25q182 0 321.5 57t234.5 160.5t147 238t68 289.5q4 43 4 90q0 179 -71.5 267.5t-192.5 114t-321 25.5 q-66 0 -108.5 -0.5t-94.5 -0.5z" />
<glyph unicode="E" horiz-adv-x="1024" d="M176 0l272 1392h720q-16 -48 -16 -144q-52 21 -242 34.5t-286 13.5l-112 -496h352q96 0 144 16q-16 -64 -16 -144q-96 16 -496 16l-112 -592q79 0 186.5 5t178.5 10t195 17q-32 -96 -32 -128h-736z" />
<glyph unicode="F" horiz-adv-x="1024" d="M176 0l272 1392h720q-16 -48 -16 -144q-77 16 -155.5 22t-162.5 8t-226 2l-96 -480h288q34 0 110 8t98 8q-16 -48 -16 -128q-43 11 -95.5 13.5t-144.5 2.5h-256l-128 -704q-60 12 -96 12t-96 -12z" />
<glyph unicode="G" horiz-adv-x="1584" d="M238 526q0 43 2 66q23 224 109.5 388.5t215.5 266t279 147.5t308 46q111 0 276.5 -29.5t251.5 -82.5l-80 -176h-32q-59 94 -172 143t-260 49q-107 0 -214.5 -33.5t-208 -117.5t-171.5 -229t-94 -356q-5 -45 -5 -80q0 -127 48.5 -232.5t150 -168.5t254.5 -63q261 0 368 64 l96 528q60 -12 102 -12t90 12l-112 -592q-96 -37 -194.5 -58.5t-197 -29.5t-200.5 -8q-126 0 -234 30t-193 96t-134 174.5t-49 257.5z" />
<glyph unicode="H" horiz-adv-x="1584" d="M160 0l272 1408q48 -12 96 -12t96 12l-112 -576q216 -12 424 -12t424 12l112 576q48 -12 96 -12t96 12l-272 -1408q-48 12 -90 12t-102 -12l128 704q-216 12 -424 12t-424 -12l-128 -704q-48 12 -90 12t-102 -12z" />
<glyph unicode="I" horiz-adv-x="560" d="M192 0l272 1408q36 -12 90 -12t102 12l-272 -1408q-48 12 -96 12t-96 -12z" />
<glyph unicode="J" horiz-adv-x="560" d="M-80 -224q106 6 173 57t101 124t50 149t28 134l240 1152q60 -12 94 -12t82 12l-224 -1184q-20 -129 -77.5 -224.5t-133 -153t-151.5 -83t-134 -25.5q-28 0 -48 6v48z" />
<glyph unicode="K" horiz-adv-x="1248" d="M160 0l288 1392q48 -12 96 -12t96 12l-128 -640q47 30 161.5 120.5t246.5 200.5t237.5 203.5t122.5 115.5q48 -12 96 -12t96 12l-784 -624l512 -736v-32q-60 12 -120 12t-120 -12q-5 33 -47 105.5t-103.5 166t-150 227t-131.5 205.5h-32l-144 -704q-48 12 -96 12t-96 -12 z" />
<glyph unicode="L" horiz-adv-x="1024" d="M176 0l256 1392q60 -12 96 -12t96 12l-240 -1280q76 0 205.5 5t223.5 11.5t131 15.5q-32 -96 -32 -144h-736z" />
<glyph unicode="M" horiz-adv-x="1808" d="M80 0l480 1392h48q33 -90 104 -298.5t118 -347t85 -243.5t61 -151l784 1040h48l-96 -1392q-60 12 -110 12t-98 -12l112 1040q-339 -424 -720 -1008h-32l-320 1008q-27 -99 -76.5 -259t-87 -280t-72 -239.5t-68.5 -261.5q-24 12 -62 12t-98 -12z" />
<glyph unicode="N" horiz-adv-x="1584" d="M192 0l288 1392h96l768 -1056l192 1056q36 -12 64 -12t64 12l-272 -1392h-64l-784 1088l-208 -1088q-36 12 -72 12t-72 -12z" />
<glyph unicode="O" horiz-adv-x="1696" d="M200 520q0 54 8 120q25 134 97 268.5t192 248.5t289.5 182.5t381.5 68.5q171 0 311 -69.5t221 -200t81 -300.5q0 -50 -5 -86q-29 -189 -109 -338t-203.5 -253t-279.5 -156.5t-336 -52.5q-225 0 -370.5 74t-211.5 202.5t-66 291.5zM418 502q0 -124 41 -229.5t140.5 -173 t264.5 -67.5q168 0 293.5 68t205 172t123 210.5t66.5 205.5q29 103 29 193q0 146 -69 247t-172 150.5t-204 49.5q-195 0 -331.5 -86.5t-219 -221t-137.5 -300.5q-30 -106 -30 -218z" />
<glyph unicode="P" d="M160 0l272 1392h416q135 0 226.5 -13t159 -72.5t67.5 -180.5q0 -39 -5 -70q-18 -121 -95.5 -205t-186.5 -132t-220.5 -68t-207.5 -20q-73 0 -106 9l-128 -640q-48 12 -96 12t-96 -12zM496 736q74 -13 140 -13q160 0 262 65.5t146 150.5t44 149q0 107 -61.5 159.5 t-194.5 64.5h-224z" />
<glyph unicode="Q" horiz-adv-x="1696" d="M189 529q0 38 3 79q23 202 112 357.5t221.5 257.5t286 151.5t308.5 49.5q136 0 277.5 -43t247 -169t105.5 -353q0 -50 -6 -107q-6 -89 -53 -201t-132.5 -222t-209.5 -194.5t-277 -118.5l384 -336q-16 -8 -59 -26t-76.5 -35t-56.5 -35q-34 51 -73.5 98.5t-91 100.5 t-106 105.5t-81.5 79.5q-254 0 -415 68t-234.5 192.5t-73.5 300.5zM392 526q0 -132 46 -240.5t142 -173t236 -64.5q139 0 281 64t256.5 207.5t166.5 368.5q26 115 26 210q0 104 -29.5 187.5t-85 140.5t-138 88t-189.5 31q-11 0 -17.5 -0.5t-14.5 -0.5q-125 0 -233.5 -56 t-191.5 -148.5t-141 -201t-90 -218.5q-24 -96 -24 -194z" />
<glyph unicode="R" horiz-adv-x="1248" d="M176 0l272 1392h464q120 0 196.5 -18t120.5 -74t51 -164q1 -7 1 -22q0 -94 -61.5 -187.5t-175.5 -159t-260 -79.5l416 -688q-84 12 -126 12t-114 -12q-78 146 -143.5 259.5t-129 215.5t-127.5 197h-64l-128 -672q-15 0 -37.5 2t-45.5 3.5t-38 1.5q-33 0 -71 -7zM512 768 q41 -13 100 -13q75 0 156.5 20t155.5 62.5t119 109t45 157.5q-6 86 -39.5 129t-88 56.5t-175.5 17t-161 5.5z" />
<glyph unicode="S" horiz-adv-x="1024" d="M112 80l80 192h32q9 -57 47.5 -104t97 -75t123.5 -28q71 0 138 34.5t122 108.5q34 47 52 95t18 94q0 99 -86 163q-63 45 -165.5 93.5t-146 73.5t-74 75.5t-30.5 141.5q7 158 86 263t200 153t258 48q77 0 149.5 -25t106.5 -71q-48 -96 -80 -176h-32q-21 94 -77 139.5 t-129 45.5q-68 0 -138.5 -38.5t-117 -103t-50.5 -139.5q0 -81 61 -131t185.5 -110t189.5 -110t76 -129q2 -18 2 -35q0 -69 -25 -161.5t-88.5 -183t-179 -151.5t-285.5 -61q-74 0 -128.5 10.5t-87 25.5t-56 33t-48.5 43z" />
<glyph unicode="T" d="M272 1264q32 32 32 144h1056q-23 -71 -23 -102q0 -22 7 -42q-160 32 -432 32l-256 -1296q-48 12 -90 12t-102 -12l256 1296q-65 0 -133 -2t-151 -8.5t-164 -21.5z" />
<glyph unicode="U" horiz-adv-x="1584" d="M268 342q0 71 20 186l160 880q48 -12 94 -12t82 12l-160 -912q-6 -40 -6 -80q0 -69 19.5 -130t62 -110t107.5 -77.5t153 -34.5q12 -1 36 -1q132 0 240.5 59t186 185t113.5 317l144 784q36 -12 64 -12t64 12l-144 -768q-35 -191 -105.5 -322.5t-167.5 -207.5t-212.5 -109 t-250.5 -33q-192 6 -303.5 55.5t-154 129.5t-42.5 189z" />
<glyph unicode="V" horiz-adv-x="1360" d="M320 1408q60 -12 102 -12t90 12l240 -1168q23 17 103 138.5t194 308.5t224.5 375.5t198.5 345.5q36 -12 72 -12t72 12q-88 -146 -221.5 -359t-225.5 -359t-209 -338t-208 -352q-24 12 -48 12t-48 -12z" />
<glyph unicode="W" horiz-adv-x="2032" d="M288 1392q36 -12 96 -12t96 12l128 -1168l624 1168q36 -12 64 -12t64 12q0 -24 8 -80t8 -80l144 -1008l304 592q144 264 288 576q36 -12 80 -12t80 12q-44 -78 -114 -192.5t-121.5 -198.5t-97 -165.5t-83.5 -163.5l-352 -672q-36 12 -72 12t-72 -12l-144 1168l-608 -1168 q-36 12 -72 12t-72 -12z" />
<glyph unicode="X" horiz-adv-x="1248" d="M48 0q34 34 90 96.5t120 136.5t118 135.5t72 79.5l208 256l-160 416q-20 60 -61 130.5t-83 141.5q36 -12 120 -12t120 12l208 -528l208 240q6 12 106 132t118 156q36 -12 88 -12t88 12l-576 -624l320 -768q-36 12 -112 12t-112 -12q-23 79 -69 210.5t-59 157.5l-96 240 l-480 -608q-36 12 -88 12t-88 -12z" />
<glyph unicode="Y" horiz-adv-x="1248" d="M304 1392q36 -12 120 -12t120 12q24 -110 59 -214.5t79 -214.5t102 -243q24 17 110 129t179 238.5t127 176.5l96 128q36 -12 80 -12t80 12l-624 -752l-112 -640q-36 12 -96 12t-96 -12l112 560z" />
<glyph unicode="Z" horiz-adv-x="1248" d="M32 0l16 64q106 126 279.5 318t314.5 347t262.5 292.5t247.5 290.5q-69 0 -158.5 -4t-235.5 -14t-228.5 -16.5t-177.5 -13.5q32 64 32 128h1072l-16 -64q-394 -409 -644 -680.5t-476 -551.5q67 4 191.5 9t214 8.5t237.5 11.5t253 19q-32 -96 -32 -144h-1152z" />
<glyph unicode="[" horiz-adv-x="672" d="M144 -288l192 1024l144 736h320l-16 -64h-192l-320 -1632h208l-16 -64h-320z" />
<glyph unicode="\" horiz-adv-x="1024" d="M352 1520q36 -12 72 -12t72 12l480 -1520q-36 12 -72 12t-72 -12z" />
<glyph unicode="]" horiz-adv-x="672" d="M32 -240l16 64h192l320 1632h-208l16 64h320l-336 -1760h-320z" />
<glyph unicode="^" horiz-adv-x="1232" d="M208 560l592 816h144l288 -816h-160l-224 640l-480 -640h-160z" />
<glyph unicode="_" horiz-adv-x="1024" d="M-64 -320l16 80h1008l-16 -80h-1008z" />
<glyph unicode="`" horiz-adv-x="672" d="M297 1365q0 31 26 57t62 26q61 0 111 -72l208 -272h-80l-304 208q-23 23 -23 53z" />
<glyph unicode="a" horiz-adv-x="1024" d="M128 192q11 107 64 171t130.5 95t166.5 45t167 25q81 6 123.5 54.5t42.5 114.5q0 73 -48.5 128t-133.5 55q-71 0 -144 -33.5t-128 -110.5h-32l16 112q85 61 177 94.5t175 33.5q72 0 138 -26.5t106.5 -82.5t40.5 -142q0 -48 -13 -101l-96 -448q-4 -28 -4 -53t6 -38 t18.5 -17.5t33.5 -4.5q10 0 18.5 0.5t23.5 0.5l-16 -48q-64 -29 -121 -29q-60 0 -97.5 34t-37.5 91q-56 -79 -145 -111.5t-207 -32.5q-96 0 -160 64t-64 160zM304 176q0 -31 21.5 -57.5t57.5 -41.5t81 -15q70 0 138 39.5t118 122.5l48 256q-9 -3 -109 -20.5t-176 -45.5 t-127.5 -86t-51.5 -152z" />
<glyph unicode="b" d="M128 0l304 1536q48 -12 88 -12t88 12l-144 -736q80 91 187 141.5t197 50.5q110 -3 185.5 -52.5t110.5 -131.5t35 -182q0 -109 -39.5 -223.5t-114 -212.5t-177 -158t-224.5 -64q-184 0 -304 144l-144 -112h-48zM364 311q0 -128 64.5 -195.5t179.5 -67.5q95 0 176 76.5 t132.5 185.5t59.5 186q13 70 13 133q0 117 -47.5 192t-157.5 75q-95 0 -173.5 -54t-136.5 -151.5t-90 -226.5q-20 -88 -20 -153z" />
<glyph unicode="c" horiz-adv-x="1024" d="M159 347q0 24 1 37q8 152 80.5 292t214 228t345.5 88q44 0 106 -10.5t115 -28.5t83 -41l-80 -160h-16q-16 55 -50 90.5t-78.5 52.5t-95.5 17q-127 -4 -226 -83.5t-152 -201.5t-53 -243q0 -68 16.5 -125.5t49.5 -103t85.5 -73.5t119.5 -34q72 0 166 42t154 102l16 -16 l-32 -96q-133 -107 -338 -107q-115 0 -213 40.5t-158 125.5t-60 208z" />
<glyph unicode="d" d="M127 373q0 28 1 43q30 197 117 331.5t205.5 197.5t253.5 63q184 0 272 -176l128 720q48 -12 88 -12t88 12l-288 -1552q-48 12 -88 12t-88 -12l32 192q-81 -116 -170 -162t-214 -46q-101 0 -177 44t-118 131t-42 214zM323 347q0 -122 51.5 -202.5t169.5 -80.5 q109 0 209 115t159 317q19 79 19 148q0 126 -56.5 197t-138.5 71q-122 0 -206 -74t-126.5 -167.5t-67.5 -190.5q-13 -68 -13 -133z" />
<glyph unicode="e" horiz-adv-x="1024" d="M160 352q0 185 75 328t199 219.5t270 76.5q95 0 162.5 -23t109.5 -66t63 -105t21 -142q0 -79 -20 -176q-3 0 -107 4.5t-255.5 8t-325.5 3.5q-19 -66 -19 -132q0 -124 69.5 -204.5t195.5 -80.5q17 0 26 1q71 7 129.5 28.5t94.5 45t96 70.5l-16 -112q-52 -45 -119.5 -74 t-137 -41.5t-127.5 -12.5q-83 0 -152.5 19t-120.5 61t-81 117.5t-30 186.5zM368 560h512q23 52 23 128q0 92 -41 158t-126 66q-107 0 -187.5 -68t-124.5 -151t-56 -133z" />
<glyph unicode="f" horiz-adv-x="560" d="M176 0l176 896h-144q8 8 15.5 31t7.5 41q0 17 -7 24h160q17 65 48.5 141.5t69 146t58.5 96.5q57 70 140 125.5t177 55.5q23 0 51 -5q-48 -96 -48 -160l-32 -16q-46 22 -92 22q-39 0 -73 -13.5t-62.5 -40.5t-44.5 -64q-33 -77 -40.5 -132.5t-7.5 -155.5h224 q-32 -64 -32 -96h-192l-176 -896q-36 12 -82 12t-94 -12z" />
<glyph unicode="g" horiz-adv-x="1024" d="M0 -288q0 109 72.5 190.5t215.5 129.5q-39 0 -75.5 27.5t-36.5 100.5q0 83 56 133.5t136 90.5q-68 11 -106 71t-38 137q0 114 53 205t145.5 143.5t203.5 52.5q20 0 30 -1q11 0 66.5 -1.5t143 -3.5t133.5 -2q108 0 153 7l-16 -96l-224 32q63 -52 79.5 -110t16.5 -130 q-10 -92 -50 -159.5t-105 -111t-146.5 -63.5t-182.5 -20q-20 0 -60 2q-48 0 -77 -15.5t-42.5 -40t-13.5 -50.5q0 -29 14.5 -49.5t38.5 -20.5q112 -8 172 -8t164 -8q228 -18 228 -208q0 -16 -4 -48q-7 -56 -41 -128t-101 -142.5t-172 -116t-246 -45.5q-134 0 -259 50.5 t-125 205.5zM154 -269q0 -31 6 -67q12 -66 75.5 -100.5t154.5 -34.5q103 0 200 44t146 123q39 78 39 146q0 52 -24 91t-75.5 61t-131.5 22q-155 0 -272.5 -64.5t-117.5 -220.5zM378 585q0 -83 53.5 -134t128.5 -51q80 0 139.5 42t92 106t40.5 124q9 41 9 87 q0 72 -33.5 120.5t-119.5 48.5q-240 0 -304 -288q-6 -28 -6 -55z" />
<glyph unicode="h" d="M144 0l304 1568q48 -12 88 -12t88 12l-144 -752q51 74 114.5 117.5t128 59t125.5 15.5q263 0 263 -273q0 -47 -7 -95l-128 -640q-36 12 -82 12t-94 -12l128 608q8 33 8 73q0 55 -18.5 100.5t-53.5 72t-80 26.5q-15 2 -45 2q-73 0 -131 -28t-103 -93t-73 -169l-112 -592 q-48 12 -88 12t-88 -12z" />
<glyph unicode="i" horiz-adv-x="560" d="M192 0l176 992q48 -12 88 -12t88 12l-176 -992q-48 12 -88 12t-88 -12zM432 1328q11 64 45.5 97t74.5 33q37 0 62.5 -25.5t25.5 -72.5q-5 -55 -46 -90t-87 -35q-75 0 -75 93z" />
<glyph unicode="j" horiz-adv-x="560" d="M-96 -464q78 0 141 69.5t105 178.5t58 216l176 976q36 -12 88 -12t88 12l-176 -960q-30 -190 -101.5 -311.5t-166.5 -177t-196 -55.5zM432 1312q0 37 20 65.5t52 44t65 15.5q39 0 63 -22.5t24 -70.5q0 -61 -38 -96t-87 -35q-41 0 -70 26t-29 73z" />
<glyph unicode="k" horiz-adv-x="1024" d="M160 0l304 1568q48 -12 88 -12t88 12l-192 -992q4 -17 23 -17q43 0 136.5 81.5t221.5 209t147 142.5q36 -12 80 -12t80 12v-32l-512 -400l368 -528v-32q-60 12 -104 12t-104 -12l-240 368q-71 113 -92 113q-16 0 -36 -49l-80 -432q-36 12 -82 12t-94 -12z" />
<glyph unicode="l" horiz-adv-x="560" d="M208 0l304 1552q48 -12 88 -12t88 12l-304 -1552q-36 12 -82 12t-94 -12z" />
<glyph unicode="m" horiz-adv-x="1696" d="M144 0l192 992q36 -12 82 -12t94 12l-32 -160q35 37 76 79t103 69.5t157 27.5q76 0 134.5 -31t90 -79t31.5 -98q76 102 164.5 155t203.5 53q100 -6 156 -39.5t78.5 -89.5t22.5 -125q0 -60 -17 -162l-112 -592q-36 12 -82 12t-94 -12l112 576q16 80 16 130q0 174 -160 174 q-101 0 -186 -70t-118 -234l-112 -576q-36 12 -82 12t-94 -12l112 544q16 107 16 160q0 89 -39 132.5t-137 43.5q-63 0 -116 -19.5t-98 -81t-74 -171.5l-112 -608q-48 12 -88 12t-88 -12z" />
<glyph unicode="n" d="M144 0l192 992q48 -12 96 -12t96 12l-32 -160q123 176 368 176q83 0 141 -27t88.5 -82t30.5 -141q0 -64 -20 -150l-112 -608q-36 12 -90 12t-102 -12l128 656q6 34 6 63q0 90 -48 135t-123 45q-100 0 -192.5 -74t-122.5 -201l-128 -624q-36 12 -82 12t-94 -12z" />
<glyph unicode="o" d="M146 354q0 63 14 126q25 106 76.5 200.5t128.5 168.5t179.5 116.5t223.5 42.5q204 0 304.5 -109t100.5 -278q0 -34 -5 -77q-30 -225 -184 -400.5t-456 -175.5q-85 0 -173.5 42t-148.5 129t-60 215zM330 333q0 -82 28.5 -146.5t84 -101.5t133.5 -37q72 0 140.5 38.5 t126.5 110.5t92.5 165t40.5 198q4 60 4 86q0 134 -47.5 208t-164.5 74q-178 0 -269 -131t-147 -317q-22 -79 -22 -147z" />
<glyph unicode="p" d="M32 -528l288 1520q48 -12 94 -12t82 12l-48 -208q57 103 159.5 159.5t213.5 56.5q93 0 172 -42t127 -131.5t48 -218.5q-8 -142 -74.5 -291.5t-186 -249t-278.5 -99.5h-21q-108 0 -174.5 58t-97.5 134l-128 -688q-36 12 -82 12t-94 -12zM385 340q0 -131 53 -204t160 -73 q17 0 26 1q60 0 129.5 46.5t127 145.5t79.5 240q18 88 18 163q0 70 -18.5 126.5t-66 91.5t-125.5 35q-102 0 -179.5 -68.5t-122.5 -162t-66 -185.5q-15 -85 -15 -156z" />
<glyph unicode="q" d="M127 329q0 26 1 39q0 150 63.5 294t184.5 237t280 93q87 0 152.5 -31.5t101.5 -82t36 -105.5q0 -7 -2 -21l48 240q36 -12 82 -12t94 12l-288 -1520q-36 12 -88 12t-88 -12l128 688q-53 -116 -151.5 -154t-216.5 -38q-107 0 -184 49t-115 130.5t-38 181.5zM314 354 q0 -77 21 -143t66.5 -105t110.5 -42q8 -1 24 -1q95 0 175.5 57.5t129 161t55.5 230.5q10 56 10 109q0 96 -33.5 161.5t-90 97.5t-126.5 32q-96 -9 -175 -96.5t-123 -213.5t-44 -248z" />
<glyph unicode="r" horiz-adv-x="672" d="M144 0l192 992q48 -12 88 -12t88 12l-32 -160q93 119 172.5 155.5t160.5 36.5h35l-80 -208q-17 17 -45 27.5t-60 10.5q-71 0 -134 -64t-97 -214l-112 -576q-36 12 -88 12t-88 -12z" />
<glyph unicode="s" horiz-adv-x="784" d="M96 64q7 7 24 34.5t28.5 57t11.5 52.5h32q52 -94 102 -119t106 -25q60 0 116 30t89 77.5t33 94.5q0 38 -22.5 68.5t-71.5 49.5q-8 3 -89 30t-126.5 49.5t-75 58t-29.5 86.5q0 120 52 210.5t154 140t242 49.5q46 0 103 -16t89 -48q-40 -40 -80 -160h-32q-7 74 -47.5 110.5 t-97.5 36.5t-111 -35q-42 -28 -69.5 -71t-27.5 -86q0 -82 97 -131q29 -18 91 -42.5t106.5 -48t75.5 -63t31 -102.5q-7 -111 -66 -195t-155 -129t-207 -45q-24 0 -36 1q-73 0 -140 18.5t-100 61.5z" />
<glyph unicode="t" horiz-adv-x="560" d="M180 144q0 42 12 96l128 640h-128q12 24 12 48t-12 48h144l32 176l192 80l-48 -256h208q-12 -24 -12 -48t12 -48h-224l-112 -528q-18 -93 -18 -155q0 -75 26.5 -110.5t84.5 -35.5q37 0 83 13v-64q-108 -31 -188 -31q-192 0 -192 175z" />
<glyph unicode="u" d="M190 242q0 14 2 46l128 688q48 -12 88 -12t88 12l-112 -624q-6 -39 -6 -72q0 -99 48 -148.5t123 -49.5q62 0 127.5 31.5t112 86t59.5 120.5l128 656q48 -12 88 -12t88 12l-192 -976q-48 12 -88 12t-88 -12l32 144q-62 -62 -108 -95t-106 -49t-154 -16q-258 0 -258 258z " />
<glyph unicode="v" horiz-adv-x="1024" d="M224 976q48 -12 88 -12t88 12q22 -126 49.5 -268t50.5 -245.5t60 -254.5q54 54 205.5 320t242.5 448q36 -12 80 -12t80 12q-67 -108 -165.5 -260.5t-173 -268.5t-141 -225.5t-128.5 -221.5q-24 12 -64 12t-64 -12z" />
<glyph unicode="w" horiz-adv-x="1584" d="M208 976q48 -12 96 -12t96 12q16 -128 33 -261t37 -257.5t42 -217.5q79 120 154 244.5t142.5 251.5t119.5 240q24 -12 56 -12t56 12l96 -752q57 80 124.5 184.5t141.5 228t119 208t63 131.5q36 -12 74 -12t86 12q-184 -263 -334 -501t-274 -475q-36 12 -64 12t-64 -12 l-96 704q-48 -64 -107.5 -160.5t-113.5 -192.5t-107.5 -193.5t-87.5 -157.5q-24 12 -56 12t-56 -12q-17 119 -39 252t-48 274t-48 250.5t-41 199.5z" />
<glyph unicode="x" horiz-adv-x="1024" d="M64 0v48l448 432l-272 496q60 -12 124 -12t100 12q25 -67 53.5 -123t76 -143t62.5 -118l368 384q36 -12 74 -12t86 12l-496 -432l288 -544q-60 12 -110 12t-98 -12q-16 46 -56.5 133t-84.5 165.5t-67 101.5l-368 -400q-24 12 -58 12t-70 -12z" />
<glyph unicode="y" horiz-adv-x="1024" d="M48 -544l400 544q-34 164 -61.5 287t-67 284t-59 238.5t-36.5 150.5q48 -12 104 -12t104 12q11 -80 33.5 -203.5t38.5 -201.5t41.5 -199t30.5 -148q53 75 112 166.5t123.5 199.5t110.5 186.5t118 199.5q36 -12 72 -12t72 12l-976 -1504q-36 12 -80 12t-80 -12z" />
<glyph unicode="z" horiz-adv-x="1024" d="M32 0v32l816 848q-32 4 -93 4q-101 0 -247 -12.5t-188 -23.5q16 48 16 128h784l-16 -48l-784 -832q57 0 175.5 5t202 10t246.5 17q-7 -21 -15 -43t-12.5 -43t-4.5 -42h-880z" />
<glyph unicode="{" horiz-adv-x="672" d="M240 656q97 36 138.5 80.5t53.5 127.5l96 448q22 102 85 151.5t134 61t165 11.5q-82 -32 -127.5 -67t-70 -81.5t-42.5 -123.5l-64 -352q-21 -125 -76.5 -180.5t-115.5 -75.5q95 -47 95 -165q0 -48 -15 -107l-80 -368q-3 -30 -3 -56q0 -82 31 -121.5t100 -62.5 q-23 -2 -64 -2q-117 0 -166.5 41t-49.5 139q0 38 8 94l64 336q26 118 26 142q0 42 -27 72.5t-95 57.5z" />
<glyph unicode="|" horiz-adv-x="672" d="M256 0l304 1536h144l-304 -1536h-144z" />
<glyph unicode="}" horiz-adv-x="672" d="M16 -240q51 8 99 34t83 74t42 116l80 400q8 53 30 102t62 90t100 64q-60 23 -83.5 60t-23.5 91q0 24 11 105l80 384q8 35 8 68q0 65 -34 102.5t-102 69.5q13 1 38 1q253 0 253 -188q0 -44 -19 -133l-64 -304q-10 -80 -10 -111q0 -58 27.5 -94t94.5 -51 q-70 -23 -113.5 -55.5t-65 -80t-29.5 -120.5l-64 -336q-14 -86 -44 -144t-72.5 -90.5t-91.5 -45t-109 -12.5q-46 0 -83 4z" />
<glyph unicode="~" horiz-adv-x="1232" d="M176 432q180 240 320 240q69 0 126.5 -19t126.5 -55.5t108 -53t87 -16.5q75 0 142 57.5t98 118.5l64 -96q-25 -51 -79 -103.5t-121.5 -86.5t-135.5 -34q-60 0 -138 36l-156 72t-138 36q-49 0 -103 -43t-137 -149z" />
<glyph unicode="&#xa1;" horiz-adv-x="672" d="M170 -322q0 23 6 50l256 912h48l-80 -864q-6 -106 -46 -161t-90 -55q-38 0 -66 33t-28 85zM384 880q15 61 55.5 94t89.5 33q46 0 80 -28.5t34 -73.5q0 -11 -3 -25q-17 -62 -60.5 -97t-91.5 -35q-45 0 -74.5 32.5t-29.5 99.5z" />
<glyph unicode="&#xa2;" d="M208 320q6 188 67 317.5t156.5 203t207.5 105t224 31.5q33 0 49 -1l112 224q16 -16 80 -16l-112 -224q65 -13 103.5 -29.5t72.5 -50.5q-48 -48 -80 -144h-32q-11 55 -47.5 91.5t-64.5 36.5l-400 -784q81 -32 149 -32q67 0 140.5 31t174.5 97l-32 -112 q-48 -36 -143.5 -68.5t-197.5 -32.5q-76 0 -139 21l-128 -256q-32 32 -80 32l128 240q-111 56 -159.5 140.5t-48.5 179.5zM395 374q0 -75 21 -137t64 -93l384 752q-162 0 -267.5 -93t-164.5 -227q-16 -37 -26.5 -93t-10.5 -109z" />
<glyph unicode="&#xa3;" d="M96 0q23 71 23 102q0 22 -7 42q32 -2 47 -2q114 0 184.5 49t105 126t48.5 150.5t31 204.5l-208 -16l16 112q64 -16 192 -16q6 136 39 253t93.5 202.5t156 135t223.5 49.5q86 0 165.5 -28.5t90.5 -83.5l-112 -96q-26 128 -144 128q-106 0 -177 -60t-111.5 -185t-47.5 -315 q224 0 304 16l-16 -112l-304 16q0 -76 -24.5 -155t-66.5 -149.5t-97.5 -129t-115.5 -94.5l704 32q-14 -28 -20.5 -51.5t-13 -58t-14.5 -66.5h-944z" />
<glyph unicode="&#xa4;" d="M112 272l128 112q-56 112 -56 227q0 74 21.5 143.5t63 138.5t99.5 131l-80 112l112 80l80 -96q65 31 124 52t112.5 32.5t105.5 11.5q144 0 282 -96l112 96l96 -80l-128 -112q60 -111 60 -231q0 -106 -48 -211.5t-140 -197.5l80 -96l-112 -96l-96 96q-134 -103 -305 -103 q-87 0 -168 28t-135 75l-128 -96zM319 628q0 -96 47.5 -166.5t124.5 -106t165 -35.5q73 0 170 47.5t176.5 142t101.5 226.5q2 20 2 32q0 74 -34.5 148.5t-104.5 123t-167 48.5q-114 0 -218 -55t-175 -153.5t-87 -223.5q-1 -10 -1 -28z" />
<glyph unicode="&#xa5;" d="M192 448l16 112h384v48l-80 176h-256l16 112h208l-192 528q48 -12 112 -12t112 12l208 -704q72 91 166 221t180 256.5t150 226.5q36 -12 74 -12t86 12l-416 -528h208l-16 -112h-272l-112 -160l-16 -64h352l-16 -112h-352l-80 -448q-36 12 -74 12t-86 -12l80 448h-384z " />
<glyph unicode="&#xa6;" horiz-adv-x="735" d="M256 0l304 1536h144l-304 -1536h-144z" />
<glyph unicode="&#xa7;" horiz-adv-x="1024" d="M80 -160q32 32 48 72t32 104h16q96 -192 240 -192q76 0 142.5 34t113.5 83t64 91q10 27 10 54q0 70 -60.5 112.5t-187 100t-193 113t-66.5 142.5q0 14 1 22q0 98 41 173.5t135 146.5q-15 53 -15 112q0 69 21 136.5t69 128t130 102t195 49.5q57 0 114.5 -15.5t99.5 -44.5 t58 -68q-33 -22 -50.5 -47t-45.5 -81h-16q-10 58 -38 98t-68 59t-85 19q-61 0 -118.5 -30t-96 -85t-42.5 -125q0 -67 55.5 -106.5t177.5 -98t185 -115.5t63 -150q0 -17 -1 -26q-8 -61 -23.5 -104.5t-54.5 -87.5t-114 -96q61 -65 61 -151q0 -97 -74.5 -197t-191 -164 t-227.5 -64q-56 0 -143.5 22t-160.5 74zM349 697q0 -11 3 -25q6 -41 31.5 -73.5t65.5 -60.5t79.5 -47t95.5 -43q12 -8 72 -38t88 -58q101 94 101 172q0 60 -42.5 96t-122.5 84q-35 23 -100 56t-105.5 55.5t-66.5 48.5q-46 -46 -72.5 -84.5t-26.5 -82.5z" />
<glyph unicode="&#xa8;" horiz-adv-x="672" d="M284 1204q0 8 4 28q11 46 44 71t70 25q34 0 56 -23.5t22 -72.5q-10 -53 -42 -80.5t-70 -27.5q-35 0 -59.5 22t-24.5 58zM685 1203q0 14 3 29q11 48 40.5 72t64.5 24q37 0 62 -24t25 -72q-6 -51 -39 -79.5t-75 -28.5q-34 0 -57.5 21t-23.5 58z" />
<glyph unicode="&#xa9;" horiz-adv-x="1520" d="M144 592q15 216 140.5 408.5t324.5 308t420 115.5h27q167 -6 282 -60t184 -144.5t97.5 -197t28.5 -222.5q0 -152 -71.5 -302t-197 -271t-287 -192t-330.5 -71q-24 0 -74 4q-149 11 -255 71.5t-169.5 151.5t-91.5 194t-28 207zM269 582q0 -98 35 -188t101 -162t155.5 -112 t191.5 -40q8 0 13 -0.5t11 -0.5q119 0 250.5 53.5t244 151.5t181 230.5t68.5 285.5q0 174 -74.5 289.5t-192 169t-245.5 53.5q-118 0 -241 -52.5t-229 -146t-177.5 -216.5t-88.5 -257q-3 -30 -3 -58zM448 624q16 155 96.5 267t202 170.5t261.5 58.5q71 0 153 -19.5 t119 -44.5q-32 -32 -64 -96h-16q-19 34 -74.5 56t-128.5 22q-129 0 -239 -80t-150 -254q-14 -53 -14 -106q0 -114 71 -176t189 -62q131 0 282 72l-32 -80q-107 -64 -288 -64q-143 0 -255.5 68t-112.5 268z" />
<glyph unicode="&#xaa;" horiz-adv-x="656" d="M176 640l16 80h560l-16 -80h-560zM208 960q0 87 62 128.5t152.5 56.5t167.5 27.5t82 43.5l16 64q0 44 -39 73.5t-100 29.5q-100 0 -197 -87h-16l16 64q100 80 256 80q110 0 153.5 -39.5t43.5 -110.5q0 -25 -5 -58l-48 -256q-8 -32 -8 -53q0 -46 44 -46q11 0 28 3l-16 -32 q-56 -13 -96 -13q-83 0 -83 55q0 10 3 22q-39 -39 -105.5 -67.5t-134.5 -28.5q-88 0 -132 44t-44 100zM336 976q0 -41 32 -67.5t81 -26.5q87 0 175 78l32 176q-40 -7 -90.5 -15t-104.5 -25t-89.5 -46t-35.5 -74z" />
<glyph unicode="&#xab;" horiz-adv-x="1024" d="M272 480l352 384q5 -11 15 -25t24 -24t25 -15l-304 -320l160 -336q-24 -10 -50 -22t-46 -42zM559 480l352 384q5 -11 15 -25t24 -24t25 -15l-304 -320l160 -336q-24 -10 -50 -22t-46 -42z" />
<glyph unicode="&#xac;" horiz-adv-x="1232" d="M224 656q32 64 32 144h1040l-112 -576h-144l80 432h-896z" />
<glyph unicode="&#xad;" horiz-adv-x="672" d="M160 384l32 144h512l-32 -144h-512z" />
<glyph unicode="&#xae;" horiz-adv-x="1520" d="M160 576q0 153 71.5 306t196 277.5t284 199.5t328.5 81q180 0 319 -83t214.5 -223t75.5 -302q0 -21 -1 -32q-8 -201 -123 -395.5t-314.5 -315.5t-442.5 -121q-212 0 -348 87.5t-198 226.5t-62 294zM285 593q0 -132 57 -246.5t160.5 -187t233.5 -79.5q32 -2 47 -2 q163 0 299 70t232.5 181t148.5 229t57 210q1 12 1 36q0 92 -29.5 179t-89.5 159.5t-156 119t-222 50.5q-110 0 -227 -45t-221.5 -129.5t-181.5 -208t-106 -273.5q-3 -31 -3 -63zM544 288l160 800h288q120 0 172 -43t52 -101q-7 -62 -45.5 -115t-99.5 -88.5t-143 -52.5 l256 -400q-48 12 -86 12t-74 -12q-27 56 -64 118t-93 151t-83 131h-32l-80 -400q-36 12 -64 12t-64 -12zM768 752h128q51 0 95.5 28.5t71 70.5t26.5 83t-28 65.5t-85 24.5h-160z" />
<glyph unicode="&#xb1;" horiz-adv-x="1233" />
<glyph unicode="&#xb2;" horiz-adv-x="672" />
<glyph unicode="&#xb3;" horiz-adv-x="672" />
<glyph unicode="&#xb4;" horiz-adv-x="672" d="M400 1072l336 288q68 61 126 61q27 0 43 -14t16 -37q0 -25 -21.5 -52.5t-67.5 -53.5l-336 -192h-96z" />
<glyph unicode="&#xb5;" horiz-adv-x="1137" />
<glyph unicode="&#xb6;" horiz-adv-x="1632" d="M432 928q0 242 132.5 353t315.5 111h544l-320 -1600q-36 12 -72 12t-72 -12l304 1536h-160l-304 -1536q-36 12 -72 12t-72 -12l176 864q-35 -4 -82 -4q-318 0 -318 276zM693 875q0 -79 30.5 -118t95.5 -39q9 0 29 2l128 608q-82 -8 -132.5 -38.5t-83 -100.5t-56.5 -197 q-11 -69 -11 -117z" />
<glyph unicode="&#xb7;" horiz-adv-x="560" d="M384 624q0 115 61.5 211.5t164 150.5t222.5 54q66 0 129 -32.5t103 -98.5t40 -157q-7 -118 -71.5 -214.5t-160 -149t-184.5 -52.5q-144 0 -224 89.5t-80 198.5z" />
<glyph unicode="&#xb8;" horiz-adv-x="672" d="M64 -400l48 64q55 -19 111 -19q115 0 129 83q2 14 2 19q0 54 -75 54q-26 0 -71 -9l-16 16l128 208h80l-80 -128q88 0 140 -26t52 -102q0 -102 -79.5 -148t-191.5 -46q-120 0 -177 34z" />
<glyph unicode="&#xb9;" horiz-adv-x="672" />
<glyph unicode="&#xba;" horiz-adv-x="688" d="M176 640l16 64h592l-16 -64h-592zM237 1053q0 18 3 35q0 72 43 150t133.5 132t223.5 54q119 0 190 -55.5t71 -159.5q0 -32 -5 -57q-22 -134 -84 -209t-141.5 -101t-174.5 -26q-134 0 -196.5 73t-62.5 164zM356 1029q0 -74 38 -119.5t118 -45.5q73 0 129 38.5t87.5 98.5 t39.5 119q10 56 10 101q0 78 -34 112t-104 43q-7 1 -20 1q-68 0 -129.5 -54.5t-98 -136t-36.5 -157.5z" />
<glyph unicode="&#xbb;" horiz-adv-x="1024" d="M239 128l288 320l-160 336q33 0 50.5 10t45.5 38l176 -400l-320 -368q-48 48 -80 64zM528 128l288 320l-160 336q33 0 50.5 10t45.5 38l176 -400l-320 -368q-48 48 -80 64z" />
<glyph unicode="&#xbc;" horiz-adv-x="1696" />
<glyph unicode="&#xbd;" horiz-adv-x="1696" />
<glyph unicode="&#xbe;" horiz-adv-x="1696" />
<glyph unicode="&#xbf;" horiz-adv-x="784" d="M79 -228q0 13 1 20q0 46 6 81.5t21 66.5t37 60q25 35 98 102t144.5 132t120 120.5t53.5 93.5q2 14 2 21q0 45 -27 67.5t-65 22.5q-31 0 -54 -15l-16 16l16 48q27 27 78 27q45 0 90 -23t74.5 -69t29.5 -111q0 -164 -272 -368q-95 -75 -148 -150.5t-53 -135.5 q0 -104 153 -114q72 0 192 80l-16 -112q-117 -55 -227 -55q-71 0 -124.5 23t-83.5 66.5t-30 105.5zM461 853q0 12 3 27q19 66 63 100t93 34q43 0 71.5 -29t28.5 -89q-6 -65 -52 -102.5t-103 -37.5q-43 0 -73.5 25t-30.5 72z" />
<glyph unicode="&#xc0;" horiz-adv-x="1360" d="M16 0l912 1424h48l352 -1424q-60 12 -112 12t-112 -12q-53 343 -112 560h-496q-168 -288 -304 -560q-36 12 -82 12t-94 -12zM560 656h416l-112 496zM776 1734q0 31 26 57t62 26q61 0 111 -72l208 -272h-80l-304 208q-23 23 -23 53z" />
<glyph unicode="&#xc1;" horiz-adv-x="1360" d="M16 0l912 1424h48l352 -1424q-60 12 -112 12t-112 -12q-53 343 -112 560h-496q-168 -288 -304 -560q-36 12 -82 12t-94 -12zM560 656h416l-112 496zM769 1471l336 288q68 61 126 61q27 0 43 -14t16 -37q0 -25 -21.5 -52.5t-67.5 -53.5l-336 -192h-96z" />
<glyph unicode="&#xc2;" horiz-adv-x="1360" d="M16 0l912 1424h48l352 -1424q-60 12 -112 12t-112 -12q-53 343 -112 560h-496q-168 -288 -304 -560q-36 12 -82 12t-94 -12zM560 656h416l-112 496zM625 1473l320 352h128l192 -352h-80l-192 224l-288 -224h-80z" />
<glyph unicode="&#xc3;" horiz-adv-x="1360" d="M16 0l912 1424h48l352 -1424q-60 12 -112 12t-112 -12q-53 343 -112 560h-496q-168 -288 -304 -560q-36 12 -82 12t-94 -12zM560 656h416l-112 496zM607 1472q65 130 123.5 169t132.5 39q12 2 19 2q31 0 64.5 -14t76 -40.5t59.5 -35t37 -8.5q88 0 144 112h64 q-8 -42 -46 -95t-94.5 -91t-115.5 -38q-37 0 -67.5 12.5t-68.5 37t-63 35.5t-57 11q-30 0 -53 -13t-46 -36.5t-45 -46.5h-64z" />
<glyph unicode="&#xc4;" horiz-adv-x="1360" d="M16 0l912 1424h48l352 -1424q-60 12 -112 12t-112 -12q-53 343 -112 560h-496q-168 -288 -304 -560q-36 12 -82 12t-94 -12zM560 656h416l-112 496zM683 1603q0 8 4 28q11 46 44 71t70 25q34 0 56 -23.5t22 -72.5q-10 -53 -42 -80.5t-70 -27.5q-35 0 -59.5 22t-24.5 58z M1084 1602q0 14 3 29q11 48 40.5 72t64.5 24q37 0 62 -24t25 -72q-6 -51 -39 -79.5t-75 -28.5q-34 0 -57.5 21t-23.5 58z" />
<glyph unicode="&#xc5;" horiz-adv-x="1360" d="M16 0l912 1424h48l352 -1424q-60 12 -112 12t-112 -12q-53 343 -112 560h-496q-168 -288 -304 -560q-36 12 -82 12t-94 -12zM560 656h416l-112 496zM801 1681q13 106 93 169t174 63q73 0 119 -41.5t46 -126.5q-4 -70 -45.5 -125t-100.5 -85t-121 -30q-73 0 -119 44.5 t-46 131.5zM897 1697q0 -55 28.5 -83t72.5 -28q55 0 97 38t42 105q0 47 -27.5 69.5t-70.5 22.5q-51 0 -93.5 -32t-48.5 -92z" />
<glyph unicode="&#xc6;" horiz-adv-x="1696" d="M0 0l1216 1408h688q-23 -71 -23 -109q0 -22 7 -35q-83 16 -163 22t-157 8t-192 2l-96 -512h272l160 16q-16 -48 -16 -128l-144 16h-288l-112 -576q112 0 252 9.5t260 22.5q-32 -96 -32 -128h-704l96 496h-464q-32 -46 -89 -121.5t-99 -132t-95 -131t-85 -127.5 q-48 12 -90 12t-102 -12zM640 608h400l128 640z" />
<glyph unicode="&#xc7;" horiz-adv-x="1360" d="M192 592q30 273 169 461.5t340 279.5t419 91q97 0 182.5 -17t149.5 -42.5t100 -52.5q-64 -96 -80 -160h-16q-31 62 -116.5 113.5t-235.5 62.5q-196 -6 -334.5 -97t-218 -222t-115.5 -262.5t-36 -218.5q0 -96 37.5 -205t140.5 -192t286 -83q80 0 161.5 25.5t154.5 66.5 t132 84l-48 -144q-54 -36 -132 -63t-157 -40t-143 -13q-40 0 -64 4l-64 -96q36 6 64 6q68 0 102.5 -31.5t34.5 -81.5q0 -26 -9 -53q-56 -155 -263 -155q-84 0 -185 27l48 80q67 -27 123 -27q60 0 96.5 27.5t36.5 63.5q0 22 -25 47t-58 25q-30 0 -61 -24l-32 32l112 160 q-213 22 -323.5 116.5t-141.5 221t-31 286.5z" />
<glyph unicode="&#xc8;" horiz-adv-x="1024" d="M176 0l272 1392h720q-16 -48 -16 -144q-52 21 -242 34.5t-286 13.5l-112 -496h352q96 0 144 16q-16 -64 -16 -144q-96 16 -496 16l-112 -592q79 0 186.5 5t178.5 10t195 17q-32 -96 -32 -128h-736zM600 1750q0 31 26 57t62 26q61 0 111 -72l208 -272h-80l-304 208 q-23 23 -23 53z" />
<glyph unicode="&#xc9;" horiz-adv-x="1024" d="M176 0l272 1392h720q-16 -48 -16 -144q-52 21 -242 34.5t-286 13.5l-112 -496h352q96 0 144 16q-16 -64 -16 -144q-96 16 -496 16l-112 -592q79 0 186.5 5t178.5 10t195 17q-32 -96 -32 -128h-736zM593 1471l336 288q68 61 126 61q27 0 43 -14t16 -37q0 -25 -21.5 -52.5 t-67.5 -53.5l-336 -192h-96z" />
<glyph unicode="&#xca;" horiz-adv-x="1024" d="M176 0l272 1392h720q-16 -48 -16 -144q-52 21 -242 34.5t-286 13.5l-112 -496h352q96 0 144 16q-16 -64 -16 -144q-96 16 -496 16l-112 -592q79 0 186.5 5t178.5 10t195 17q-32 -96 -32 -128h-736zM496 1473l320 352h128l192 -352h-80l-192 224l-288 -224h-80z" />
<glyph unicode="&#xcb;" horiz-adv-x="1024" d="M176 0l272 1392h720q-16 -48 -16 -144q-52 21 -242 34.5t-286 13.5l-112 -496h352q96 0 144 16q-16 -64 -16 -144q-96 16 -496 16l-112 -592q79 0 186.5 5t178.5 10t195 17q-32 -96 -32 -128h-736zM524 1603q0 8 4 28q11 46 44 71t70 25q34 0 56 -23.5t22 -72.5 q-10 -53 -42 -80.5t-70 -27.5q-35 0 -59.5 22t-24.5 58zM925 1602q0 14 3 29q11 48 40.5 72t64.5 24q37 0 62 -24t25 -72q-6 -51 -39 -79.5t-75 -28.5q-34 0 -57.5 21t-23.5 58z" />
<glyph unicode="&#xcc;" horiz-adv-x="561" d="M192 0l272 1408q36 -12 90 -12t102 12l-272 -1408q-48 12 -96 12t-96 -12zM360 1750q0 31 26 57t62 26q61 0 111 -72l208 -272h-80l-304 208q-23 23 -23 53z" />
<glyph unicode="&#xcd;" horiz-adv-x="559" d="M192 0l272 1408q36 -12 90 -12t102 12l-272 -1408q-48 12 -96 12t-96 -12zM353 1488l336 288q68 61 126 61q27 0 43 -14t16 -37q0 -25 -21.5 -52.5t-67.5 -53.5l-336 -192h-96z" />
<glyph unicode="&#xce;" horiz-adv-x="559" d="M192 0l272 1408q36 -12 90 -12t102 12l-272 -1408q-48 12 -96 12t-96 -12zM240 1473l320 352h128l192 -352h-80l-192 224l-288 -224h-80z" />
<glyph unicode="&#xcf;" horiz-adv-x="560" d="M192 0l272 1408q36 -12 90 -12t102 12l-272 -1408q-48 12 -96 12t-96 -12zM268 1620q0 8 4 28q11 46 44 71t70 25q34 0 56 -23.5t22 -72.5q-10 -53 -42 -80.5t-70 -27.5q-35 0 -59.5 22t-24.5 58zM669 1619q0 14 3 29q11 48 40.5 72t64.5 24q37 0 62 -24t25 -72 q-6 -51 -39 -79.5t-75 -28.5q-34 0 -57.5 21t-23.5 58z" />
<glyph unicode="&#xd0;" horiz-adv-x="1583" />
<glyph unicode="&#xd1;" horiz-adv-x="1584" d="M176 0l288 1392h96l768 -1056l192 1056q36 -12 64 -12t64 12l-272 -1392h-64l-784 1088l-208 -1088q-36 12 -72 12t-72 -12zM753 1552q65 130 123.5 169t132.5 39q12 2 19 2q31 0 64.5 -14t76 -40.5t59.5 -35t37 -8.5q88 0 144 112h64q-8 -42 -46 -95t-94.5 -91 t-115.5 -38q-37 0 -67.5 12.5t-68.5 37t-63 35.5t-57 11q-30 0 -53 -13t-46 -36.5t-45 -46.5h-64z" />
<glyph unicode="&#xd2;" horiz-adv-x="1696" d="M200 536q0 54 8 120q25 134 97 268.5t192 248.5t289.5 182.5t381.5 68.5q171 0 311 -69.5t221 -200t81 -300.5q0 -50 -5 -86q-29 -189 -109 -338t-203.5 -253t-279.5 -156.5t-336 -52.5q-225 0 -370.5 74t-211.5 202.5t-66 291.5zM418 518q0 -124 41 -229.5t140.5 -173 t264.5 -67.5q168 0 293.5 68t205 172t123 210.5t66.5 205.5q29 103 29 193q0 146 -69 247t-172 150.5t-204 49.5q-195 0 -331.5 -86.5t-219 -221t-137.5 -300.5q-30 -106 -30 -218zM905 1764q0 31 26 57t62 26q61 0 111 -72l208 -272h-80l-304 208q-23 23 -23 53z" />
<glyph unicode="&#xd3;" horiz-adv-x="1696" d="M200 536q0 54 8 120q25 134 97 268.5t192 248.5t289.5 182.5t381.5 68.5q171 0 311 -69.5t221 -200t81 -300.5q0 -50 -5 -86q-29 -189 -109 -338t-203.5 -253t-279.5 -156.5t-336 -52.5q-225 0 -370.5 74t-211.5 202.5t-66 291.5zM418 518q0 -124 41 -229.5t140.5 -173 t264.5 -67.5q168 0 293.5 68t205 172t123 210.5t66.5 205.5q29 103 29 193q0 146 -69 247t-172 150.5t-204 49.5q-195 0 -331.5 -86.5t-219 -221t-137.5 -300.5q-30 -106 -30 -218zM896 1488l336 288q68 61 126 61q27 0 43 -14t16 -37q0 -25 -21.5 -52.5t-67.5 -53.5 l-336 -192h-96z" />
<glyph unicode="&#xd4;" horiz-adv-x="1696" d="M200 536q0 54 8 120q25 134 97 268.5t192 248.5t289.5 182.5t381.5 68.5q171 0 311 -69.5t221 -200t81 -300.5q0 -50 -5 -86q-29 -189 -109 -338t-203.5 -253t-279.5 -156.5t-336 -52.5q-225 0 -370.5 74t-211.5 202.5t-66 291.5zM418 518q0 -124 41 -229.5t140.5 -173 t264.5 -67.5q168 0 293.5 68t205 172t123 210.5t66.5 205.5q29 103 29 193q0 146 -69 247t-172 150.5t-204 49.5q-195 0 -331.5 -86.5t-219 -221t-137.5 -300.5q-30 -106 -30 -218zM832 1487l320 352h128l192 -352h-80l-192 224l-288 -224h-80z" />
<glyph unicode="&#xd5;" horiz-adv-x="1696" d="M200 536q0 54 8 120q25 134 97 268.5t192 248.5t289.5 182.5t381.5 68.5q171 0 311 -69.5t221 -200t81 -300.5q0 -50 -5 -86q-29 -189 -109 -338t-203.5 -253t-279.5 -156.5t-336 -52.5q-225 0 -370.5 74t-211.5 202.5t-66 291.5zM418 518q0 -124 41 -229.5t140.5 -173 t264.5 -67.5q168 0 293.5 68t205 172t123 210.5t66.5 205.5q29 103 29 193q0 146 -69 247t-172 150.5t-204 49.5q-195 0 -331.5 -86.5t-219 -221t-137.5 -300.5q-30 -106 -30 -218zM833 1505q65 130 123.5 169t132.5 39q12 2 19 2q31 0 64.5 -14t76 -40.5t59.5 -35t37 -8.5 q88 0 144 112h64q-8 -42 -46 -95t-94.5 -91t-115.5 -38q-37 0 -67.5 12.5t-68.5 37t-63 35.5t-57 11q-30 0 -53 -13t-46 -36.5t-45 -46.5h-64z" />
<glyph unicode="&#xd6;" horiz-adv-x="1696" d="M200 536q0 54 8 120q25 134 97 268.5t192 248.5t289.5 182.5t381.5 68.5q171 0 311 -69.5t221 -200t81 -300.5q0 -50 -5 -86q-29 -189 -109 -338t-203.5 -253t-279.5 -156.5t-336 -52.5q-225 0 -370.5 74t-211.5 202.5t-66 291.5zM418 518q0 -124 41 -229.5t140.5 -173 t264.5 -67.5q168 0 293.5 68t205 172t123 210.5t66.5 205.5q29 103 29 193q0 146 -69 247t-172 150.5t-204 49.5q-195 0 -331.5 -86.5t-219 -221t-137.5 -300.5q-30 -106 -30 -218zM909 1620q0 8 4 28q11 46 44 71t70 25q34 0 56 -23.5t22 -72.5q-10 -53 -42 -80.5 t-70 -27.5q-35 0 -59.5 22t-24.5 58zM1310 1619q0 14 3 29q11 48 40.5 72t64.5 24q37 0 62 -24t25 -72q-6 -51 -39 -79.5t-75 -28.5q-34 0 -57.5 21t-23.5 58z" />
<glyph unicode="&#xd8;" horiz-adv-x="1696" d="M96 -64l224 224q-128 149 -128 384q0 186 77 348t208.5 281.5t295.5 185t331 65.5q171 0 278 -40.5t186 -103.5l224 208q5 -11 15 -25t24 -24t25 -15l-224 -192q128 -149 128 -432q-10 -200 -100 -361.5t-226 -268.5t-295.5 -163t-307.5 -56q-8 0 -14.5 0.5t-16.5 0.5 q-134 0 -256 45t-176 99l-208 -208q-32 32 -64 48zM404 475q0 -127 44 -203l1008 912q-46 77 -134 115.5t-198 38.5q-84 0 -173 -22.5t-166 -64.5t-129 -99q-75 -87 -132.5 -204.5t-88.5 -241t-31 -231.5zM480 192q160 -160 352 -160q10 -1 30 -1q84 0 173 35t162.5 88 t114.5 102q85 95 140 208t78.5 224t23.5 206q0 79 -13 139t-37 87z" />
<glyph unicode="&#xd9;" horiz-adv-x="1584" d="M268 342q0 71 20 186l160 880q48 -12 94 -12t82 12l-160 -912q-6 -40 -6 -80q0 -69 19.5 -130t62 -110t107.5 -77.5t153 -34.5q12 -1 36 -1q132 0 240.5 59t186 185t113.5 317l144 784q36 -12 64 -12t64 12l-144 -768q-35 -191 -105.5 -322.5t-167.5 -207.5t-212.5 -109 t-250.5 -33q-192 6 -303.5 55.5t-154 129.5t-42.5 189zM889 1750q0 31 26 57t62 26q61 0 111 -72l208 -272h-80l-304 208q-23 23 -23 53z" />
<glyph unicode="&#xda;" horiz-adv-x="1584" d="M268 342q0 71 20 186l160 880q48 -12 94 -12t82 12l-160 -912q-6 -40 -6 -80q0 -69 19.5 -130t62 -110t107.5 -77.5t153 -34.5q12 -1 36 -1q132 0 240.5 59t186 185t113.5 317l144 784q36 -12 64 -12t64 12l-144 -768q-35 -191 -105.5 -322.5t-167.5 -207.5t-212.5 -109 t-250.5 -33q-192 6 -303.5 55.5t-154 129.5t-42.5 189zM879 1488l336 288q68 61 126 61q27 0 43 -14t16 -37q0 -25 -21.5 -52.5t-67.5 -53.5l-336 -192h-96z" />
<glyph unicode="&#xdb;" horiz-adv-x="1584" d="M268 342q0 71 20 186l160 880q48 -12 94 -12t82 12l-160 -912q-6 -40 -6 -80q0 -69 19.5 -130t62 -110t107.5 -77.5t153 -34.5q12 -1 36 -1q132 0 240.5 59t186 185t113.5 317l144 784q36 -12 64 -12t64 12l-144 -768q-35 -191 -105.5 -322.5t-167.5 -207.5t-212.5 -109 t-250.5 -33q-192 6 -303.5 55.5t-154 129.5t-42.5 189zM752 1487l320 352h128l192 -352h-80l-192 224l-288 -224h-80z" />
<glyph unicode="&#xdc;" horiz-adv-x="1584" d="M268 342q0 71 20 186l160 880q48 -12 94 -12t82 12l-160 -912q-6 -40 -6 -80q0 -69 19.5 -130t62 -110t107.5 -77.5t153 -34.5q12 -1 36 -1q132 0 240.5 59t186 185t113.5 317l144 784q36 -12 64 -12t64 12l-144 -768q-35 -191 -105.5 -322.5t-167.5 -207.5t-212.5 -109 t-250.5 -33q-192 6 -303.5 55.5t-154 129.5t-42.5 189zM796 1620q0 8 4 28q11 46 44 71t70 25q34 0 56 -23.5t22 -72.5q-10 -53 -42 -80.5t-70 -27.5q-35 0 -59.5 22t-24.5 58zM1197 1619q0 14 3 29q11 48 40.5 72t64.5 24q37 0 62 -24t25 -72q-6 -51 -39 -79.5t-75 -28.5 q-34 0 -57.5 21t-23.5 58z" />
<glyph unicode="&#xdd;" horiz-adv-x="1247" />
<glyph unicode="&#xde;" horiz-adv-x="1137" />
<glyph unicode="&#xdf;" d="M128 0l192 960q44 231 139.5 364.5t195.5 180.5t177 47q129 0 202.5 -55t85.5 -153q0 -97 -46 -150t-165 -167t-119 -170q0 -21 10 -41q27 -51 86.5 -92t119.5 -81t95.5 -90t35.5 -132q0 -7 -0.5 -11t-0.5 -10q-6 -91 -57 -168.5t-127.5 -132.5t-160 -85t-151.5 -30 q-74 0 -123.5 14.5t-84.5 49.5q64 64 80 112h16q73 -84 173 -84q64 0 125 34t98.5 91t37.5 120q0 58 -34 111q-36 57 -99.5 100.5t-106 71t-70.5 68t-28 112.5q0 50 28 92.5t84 92.5t112 99.5t96 99.5q14 19 27 63t13 88q0 142 -152 153q-104 0 -169 -86t-94.5 -184.5 t-56.5 -225.5l-208 -976q-48 12 -88 12t-88 -12z" />
<glyph unicode="&#xe0;" horiz-adv-x="1024" d="M128 208q11 107 64 171t130.5 95t166.5 45t167 25q81 6 123.5 54.5t42.5 114.5q0 73 -48.5 128t-133.5 55q-71 0 -144 -33.5t-128 -110.5h-32l16 112q85 61 177 94.5t175 33.5q72 0 138 -26.5t106.5 -82.5t40.5 -142q0 -48 -13 -101l-96 -448q-4 -28 -4 -53t6 -38 t18.5 -17.5t33.5 -4.5q10 0 18.5 0.5t23.5 0.5l-16 -48q-64 -29 -121 -29q-60 0 -97.5 34t-37.5 91q-56 -79 -145 -111.5t-207 -32.5q-96 0 -160 64t-64 160zM304 192q0 -31 21.5 -57.5t57.5 -41.5t81 -15q70 0 138 39.5t118 122.5l48 256q-9 -3 -109 -20.5t-176 -45.5 t-127.5 -86t-51.5 -152zM490 1349q0 31 26 57t62 26q61 0 111 -72l208 -272h-80l-304 208q-23 23 -23 53z" />
<glyph unicode="&#xe1;" horiz-adv-x="1024" d="M128 208q11 107 64 171t130.5 95t166.5 45t167 25q81 6 123.5 54.5t42.5 114.5q0 73 -48.5 128t-133.5 55q-71 0 -144 -33.5t-128 -110.5h-32l16 112q85 61 177 94.5t175 33.5q72 0 138 -26.5t106.5 -82.5t40.5 -142q0 -48 -13 -101l-96 -448q-4 -28 -4 -53t6 -38 t18.5 -17.5t33.5 -4.5q10 0 18.5 0.5t23.5 0.5l-16 -48q-64 -29 -121 -29q-60 0 -97.5 34t-37.5 91q-56 -79 -145 -111.5t-207 -32.5q-96 0 -160 64t-64 160zM304 192q0 -31 21.5 -57.5t57.5 -41.5t81 -15q70 0 138 39.5t118 122.5l48 256q-9 -3 -109 -20.5t-176 -45.5 t-127.5 -86t-51.5 -152zM480 1088l336 288q68 61 126 61q27 0 43 -14t16 -37q0 -25 -21.5 -52.5t-67.5 -53.5l-336 -192h-96z" />
<glyph unicode="&#xe2;" horiz-adv-x="1024" d="M144 208q11 107 64 171t130.5 95t166.5 45t167 25q81 6 123.5 54.5t42.5 114.5q0 73 -48.5 128t-133.5 55q-71 0 -144 -33.5t-128 -110.5h-32l16 112q85 61 177 94.5t175 33.5q72 0 138 -26.5t106.5 -82.5t40.5 -142q0 -48 -13 -101l-96 -448q-4 -28 -4 -53t6 -38 t18.5 -17.5t33.5 -4.5q10 0 18.5 0.5t23.5 0.5l-16 -48q-64 -29 -121 -29q-60 0 -97.5 34t-37.5 91q-56 -79 -145 -111.5t-207 -32.5q-96 0 -160 64t-64 160zM320 192q0 -31 21.5 -57.5t57.5 -41.5t81 -15q70 0 138 39.5t118 122.5l48 256q-9 -3 -109 -20.5t-176 -45.5 t-127.5 -86t-51.5 -152zM383 1088l320 352h128l192 -352h-80l-192 224l-288 -224h-80z" />
<glyph unicode="&#xe3;" horiz-adv-x="1024" d="M144 208q11 107 64 171t130.5 95t166.5 45t167 25q81 6 123.5 54.5t42.5 114.5q0 73 -48.5 128t-133.5 55q-71 0 -144 -33.5t-128 -110.5h-32l16 112q85 61 177 94.5t175 33.5q72 0 138 -26.5t106.5 -82.5t40.5 -142q0 -48 -13 -101l-96 -448q-4 -28 -4 -53t6 -38 t18.5 -17.5t33.5 -4.5q10 0 18.5 0.5t23.5 0.5l-16 -48q-64 -29 -121 -29q-60 0 -97.5 34t-37.5 91q-56 -79 -145 -111.5t-207 -32.5q-96 0 -160 64t-64 160zM320 192q0 -31 21.5 -57.5t57.5 -41.5t81 -15q70 0 138 39.5t118 122.5l48 256q-9 -3 -109 -20.5t-176 -45.5 t-127.5 -86t-51.5 -152zM368 1089q65 130 123.5 169t132.5 39q12 2 19 2q31 0 64.5 -14t76 -40.5t59.5 -35t37 -8.5q88 0 144 112h64q-8 -42 -46 -95t-94.5 -91t-115.5 -38q-37 0 -67.5 12.5t-68.5 37t-63 35.5t-57 11q-30 0 -53 -13t-46 -36.5t-45 -46.5h-64z" />
<glyph unicode="&#xe4;" horiz-adv-x="1024" d="M144 208q11 107 64 171t130.5 95t166.5 45t167 25q81 6 123.5 54.5t42.5 114.5q0 73 -48.5 128t-133.5 55q-71 0 -144 -33.5t-128 -110.5h-32l16 112q85 61 177 94.5t175 33.5q72 0 138 -26.5t106.5 -82.5t40.5 -142q0 -48 -13 -101l-96 -448q-4 -28 -4 -53t6 -38 t18.5 -17.5t33.5 -4.5q10 0 18.5 0.5t23.5 0.5l-16 -48q-64 -29 -121 -29q-60 0 -97.5 34t-37.5 91q-56 -79 -145 -111.5t-207 -32.5q-96 0 -160 64t-64 160zM320 192q0 -31 21.5 -57.5t57.5 -41.5t81 -15q70 0 138 39.5t118 122.5l48 256q-9 -3 -109 -20.5t-176 -45.5 t-127.5 -86t-51.5 -152zM460 1220q0 8 4 28q11 46 44 71t70 25q34 0 56 -23.5t22 -72.5q-10 -53 -42 -80.5t-70 -27.5q-35 0 -59.5 22t-24.5 58zM861 1219q0 14 3 29q11 48 40.5 72t64.5 24q37 0 62 -24t25 -72q-6 -51 -39 -79.5t-75 -28.5q-34 0 -57.5 21t-23.5 58z" />
<glyph unicode="&#xe5;" horiz-adv-x="1024" d="M144 208q11 107 64 171t130.5 95t166.5 45t167 25q81 6 123.5 54.5t42.5 114.5q0 73 -48.5 128t-133.5 55q-71 0 -144 -33.5t-128 -110.5h-32l16 112q85 61 177 94.5t175 33.5q72 0 138 -26.5t106.5 -82.5t40.5 -142q0 -48 -13 -101l-96 -448q-4 -28 -4 -53t6 -38 t18.5 -17.5t33.5 -4.5q10 0 18.5 0.5t23.5 0.5l-16 -48q-64 -29 -121 -29q-60 0 -97.5 34t-37.5 91q-56 -79 -145 -111.5t-207 -32.5q-96 0 -160 64t-64 160zM320 192q0 -31 21.5 -57.5t57.5 -41.5t81 -15q70 0 138 39.5t118 122.5l48 256q-9 -3 -109 -20.5t-176 -45.5 t-127.5 -86t-51.5 -152zM561 1248q13 106 93 169t174 63q73 0 119 -41.5t46 -126.5q-4 -70 -45.5 -125t-100.5 -85t-121 -30q-73 0 -119 44.5t-46 131.5zM657 1264q0 -55 28.5 -83t72.5 -28q55 0 97 38t42 105q0 47 -27.5 69.5t-70.5 22.5q-51 0 -93.5 -32t-48.5 -92z" />
<glyph unicode="&#xe6;" horiz-adv-x="1584" d="M80 192q11 138 88.5 205t218.5 95t236.5 44.5t144.5 55.5q36 72 36 130q0 50 -26 86t-71.5 54t-98.5 18q-82 0 -144 -25t-128 -103h-32v96q68 68 172.5 106t195.5 38q58 0 112.5 -17t100 -54t75.5 -89q76 87 170.5 123.5t181.5 36.5q332 -14 332 -314q0 -88 -28 -198 h-688q-23 -68 -23 -131q0 -80 35.5 -141t95 -94.5t132.5 -33.5q110 0 189.5 28.5t162.5 99.5l-32 -112q-73 -57 -167.5 -89.5t-190.5 -32.5q-123 0 -224.5 54.5t-153.5 163.5q-78 -104 -177 -164t-223 -60q-100 0 -186 57.5t-86 166.5zM288 224q0 -70 41.5 -106t105.5 -36 q79 0 158 48t111 126l48 240q-31 -11 -129.5 -29t-167 -40t-118 -70.5t-49.5 -132.5zM960 576h496q24 49 24 108q0 57 -23.5 110t-69.5 85.5t-107 32.5q-74 0 -148 -60.5t-123 -143t-49 -132.5z" />
<glyph unicode="&#xe7;" horiz-adv-x="1024" d="M158 319q0 11 2 33q0 177 57.5 301.5t152.5 199.5t202 107t212 32q98 0 187 -25.5t133 -54.5l-80 -160h-16q-16 40 -48.5 77.5t-77 60t-98.5 22.5q-126 0 -258 -98t-174 -350q-7 -38 -7 -71q0 -127 72.5 -228t206.5 -101q85 0 153 28.5t151 99.5l16 -16l-16 -96 q-67 -45 -128 -65.5t-113.5 -25.5t-126.5 -5l-80 -96q35 7 66 7q142 0 142 -135q0 -98 -94 -145t-210 -47q-64 0 -160 32l48 80q61 -24 128 -24q128 0 128 88q0 23 -16 44t-50 21q-27 0 -62 -17l-48 32l112 160q-96 22 -165 70.5t-105 116t-36 148.5z" />
<glyph unicode="&#xe8;" horiz-adv-x="1024" d="M160 368q0 185 75 328t199 219.5t270 76.5q95 0 162.5 -23t109.5 -66t63 -105t21 -142q0 -79 -20 -176q-3 0 -107 4.5t-255.5 8t-325.5 3.5q-19 -66 -19 -132q0 -124 69.5 -204.5t195.5 -80.5q17 0 26 1q71 7 129.5 28.5t94.5 45t96 70.5l-16 -112q-52 -45 -119.5 -74 t-137 -41.5t-127.5 -12.5q-83 0 -152.5 19t-120.5 61t-81 117.5t-30 186.5zM368 576h512q23 52 23 128q0 92 -41 158t-126 66q-107 0 -187.5 -68t-124.5 -151t-56 -133zM506 1349q0 31 26 57t62 26q61 0 111 -72l208 -272h-80l-304 208q-23 23 -23 53z" />
<glyph unicode="&#xe9;" horiz-adv-x="1024" d="M160 368q0 185 75 328t199 219.5t270 76.5q95 0 162.5 -23t109.5 -66t63 -105t21 -142q0 -79 -20 -176q-3 0 -107 4.5t-255.5 8t-325.5 3.5q-19 -66 -19 -132q0 -124 69.5 -204.5t195.5 -80.5q17 0 26 1q71 7 129.5 28.5t94.5 45t96 70.5l-16 -112q-52 -45 -119.5 -74 t-137 -41.5t-127.5 -12.5q-83 0 -152.5 19t-120.5 61t-81 117.5t-30 186.5zM368 576h512q23 52 23 128q0 92 -41 158t-126 66q-107 0 -187.5 -68t-124.5 -151t-56 -133zM513 1072l336 288q68 61 126 61q27 0 43 -14t16 -37q0 -25 -21.5 -52.5t-67.5 -53.5l-336 -192h-96z " />
<glyph unicode="&#xea;" horiz-adv-x="1024" d="M160 368q0 185 75 328t199 219.5t270 76.5q95 0 162.5 -23t109.5 -66t63 -105t21 -142q0 -79 -20 -176q-3 0 -107 4.5t-255.5 8t-325.5 3.5q-19 -66 -19 -132q0 -124 69.5 -204.5t195.5 -80.5q17 0 26 1q71 7 129.5 28.5t94.5 45t96 70.5l-16 -112q-52 -45 -119.5 -74 t-137 -41.5t-127.5 -12.5q-83 0 -152.5 19t-120.5 61t-81 117.5t-30 186.5zM368 576h512q23 52 23 128q0 92 -41 158t-126 66q-107 0 -187.5 -68t-124.5 -151t-56 -133zM416 1088l320 352h128l192 -352h-80l-192 224l-288 -224h-80z" />
<glyph unicode="&#xeb;" horiz-adv-x="1024" d="M160 368q0 185 75 328t199 219.5t270 76.5q95 0 162.5 -23t109.5 -66t63 -105t21 -142q0 -79 -20 -176q-3 0 -107 4.5t-255.5 8t-325.5 3.5q-19 -66 -19 -132q0 -124 69.5 -204.5t195.5 -80.5q17 0 26 1q71 7 129.5 28.5t94.5 45t96 70.5l-16 -112q-52 -45 -119.5 -74 t-137 -41.5t-127.5 -12.5q-83 0 -152.5 19t-120.5 61t-81 117.5t-30 186.5zM368 576h512q23 52 23 128q0 92 -41 158t-126 66q-107 0 -187.5 -68t-124.5 -151t-56 -133zM444 1204q0 8 4 28q11 46 44 71t70 25q34 0 56 -23.5t22 -72.5q-10 -53 -42 -80.5t-70 -27.5 q-35 0 -59.5 22t-24.5 58zM845 1203q0 14 3 29q11 48 40.5 72t64.5 24q37 0 62 -24t25 -72q-6 -51 -39 -79.5t-75 -28.5q-34 0 -57.5 21t-23.5 58z" />
<glyph unicode="&#xec;" horiz-adv-x="560" d="M192 0l192 992q48 -12 88 -12t88 12l-192 -992q-48 12 -88 12t-88 -12zM281 1349q0 31 26 57t62 26q61 0 111 -72l208 -272h-80l-304 208q-23 23 -23 53z" />
<glyph unicode="&#xed;" horiz-adv-x="560" d="M192 0l192 992q48 -12 88 -12t88 12l-192 -992q-48 12 -88 12t-88 -12zM287 1088l336 288q68 61 126 61q27 0 43 -14t16 -37q0 -25 -21.5 -52.5t-67.5 -53.5l-336 -192h-96z" />
<glyph unicode="&#xee;" horiz-adv-x="560" d="M144 1072l320 352h128l192 -352h-80l-192 224l-288 -224h-80zM192 0l192 992q48 -12 88 -12t88 12l-192 -992q-48 12 -88 12t-88 -12z" />
<glyph unicode="&#xef;" horiz-adv-x="560" d="M192 0l192 992q48 -12 88 -12t88 12l-192 -992q-48 12 -88 12t-88 -12zM221 1204q0 8 4 28q11 46 44 71t70 25q34 0 56 -23.5t22 -72.5q-10 -53 -42 -80.5t-70 -27.5q-35 0 -59.5 22t-24.5 58zM622 1203q0 14 3 29q11 48 40.5 72t64.5 24q37 0 62 -24t25 -72 q-6 -51 -39 -79.5t-75 -28.5q-34 0 -57.5 21t-23.5 58z" />
<glyph unicode="&#xf0;" horiz-adv-x="1137" />
<glyph unicode="&#xf1;" d="M160 0l192 992q48 -12 96 -12t96 12l-32 -160q123 176 368 176q83 0 141 -27t88.5 -82t30.5 -141q0 -64 -20 -150l-112 -608q-36 12 -90 12t-102 -12l128 656q6 34 6 63q0 90 -48 135t-123 45q-100 0 -192.5 -74t-122.5 -201l-128 -624q-36 12 -82 12t-94 -12zM448 1136 q65 130 123.5 169t132.5 39q12 2 19 2q31 0 64.5 -14t76 -40.5t59.5 -35t37 -8.5q88 0 144 112h64q-8 -42 -46 -95t-94.5 -91t-115.5 -38q-37 0 -67.5 12.5t-68.5 37t-63 35.5t-57 11q-30 0 -53 -13t-46 -36.5t-45 -46.5h-64z" />
<glyph unicode="&#xf2;" d="M146 370q0 63 14 126q25 106 76.5 200.5t128.5 168.5t179.5 116.5t223.5 42.5q204 0 304.5 -109t100.5 -278q0 -34 -5 -77q-30 -225 -184 -400.5t-456 -175.5q-85 0 -173.5 42t-148.5 129t-60 215zM330 349q0 -82 28.5 -146.5t84 -101.5t133.5 -37q72 0 140.5 38.5 t126.5 110.5t92.5 165t40.5 198q4 60 4 86q0 134 -47.5 208t-164.5 74q-178 0 -269 -131t-147 -317q-22 -79 -22 -147zM569 1349q0 31 26 57t62 26q61 0 111 -72l208 -272h-80l-304 208q-23 23 -23 53z" />
<glyph unicode="&#xf3;" d="M146 370q0 63 14 126q25 106 76.5 200.5t128.5 168.5t179.5 116.5t223.5 42.5q204 0 304.5 -109t100.5 -278q0 -34 -5 -77q-30 -225 -184 -400.5t-456 -175.5q-85 0 -173.5 42t-148.5 129t-60 215zM330 349q0 -82 28.5 -146.5t84 -101.5t133.5 -37q72 0 140.5 38.5 t126.5 110.5t92.5 165t40.5 198q4 60 4 86q0 134 -47.5 208t-164.5 74q-178 0 -269 -131t-147 -317q-22 -79 -22 -147zM576 1088l336 288q68 61 126 61q27 0 43 -14t16 -37q0 -25 -21.5 -52.5t-67.5 -53.5l-336 -192h-96z" />
<glyph unicode="&#xf4;" d="M146 370q0 63 14 126q25 106 76.5 200.5t128.5 168.5t179.5 116.5t223.5 42.5q204 0 304.5 -109t100.5 -278q0 -34 -5 -77q-30 -225 -184 -400.5t-456 -175.5q-85 0 -173.5 42t-148.5 129t-60 215zM330 349q0 -82 28.5 -146.5t84 -101.5t133.5 -37q72 0 140.5 38.5 t126.5 110.5t92.5 165t40.5 198q4 60 4 86q0 134 -47.5 208t-164.5 74q-178 0 -269 -131t-147 -317q-22 -79 -22 -147zM463 1088l320 352h128l192 -352h-80l-192 224l-288 -224h-80z" />
<glyph unicode="&#xf5;" d="M146 370q0 63 14 126q25 106 76.5 200.5t128.5 168.5t179.5 116.5t223.5 42.5q204 0 304.5 -109t100.5 -278q0 -34 -5 -77q-30 -225 -184 -400.5t-456 -175.5q-85 0 -173.5 42t-148.5 129t-60 215zM330 349q0 -82 28.5 -146.5t84 -101.5t133.5 -37q72 0 140.5 38.5 t126.5 110.5t92.5 165t40.5 198q4 60 4 86q0 134 -47.5 208t-164.5 74q-178 0 -269 -131t-147 -317q-22 -79 -22 -147zM417 1089q65 130 123.5 169t132.5 39q12 2 19 2q31 0 64.5 -14t76 -40.5t59.5 -35t37 -8.5q88 0 144 112h64q-8 -42 -46 -95t-94.5 -91t-115.5 -38 q-37 0 -67.5 12.5t-68.5 37t-63 35.5t-57 11q-30 0 -53 -13t-46 -36.5t-45 -46.5h-64z" />
<glyph unicode="&#xf6;" d="M146 370q0 63 14 126q25 106 76.5 200.5t128.5 168.5t179.5 116.5t223.5 42.5q204 0 304.5 -109t100.5 -278q0 -34 -5 -77q-30 -225 -184 -400.5t-456 -175.5q-85 0 -173.5 42t-148.5 129t-60 215zM330 349q0 -82 28.5 -146.5t84 -101.5t133.5 -37q72 0 140.5 38.5 t126.5 110.5t92.5 165t40.5 198q4 60 4 86q0 134 -47.5 208t-164.5 74q-178 0 -269 -131t-147 -317q-22 -79 -22 -147zM507 1220q0 8 4 28q11 46 44 71t70 25q34 0 56 -23.5t22 -72.5q-10 -53 -42 -80.5t-70 -27.5q-35 0 -59.5 22t-24.5 58zM908 1219q0 14 3 29 q11 48 40.5 72t64.5 24q37 0 62 -24t25 -72q-6 -51 -39 -79.5t-75 -28.5q-34 0 -57.5 21t-23.5 58z" />
<glyph unicode="&#xf7;" horiz-adv-x="1233" />
<glyph unicode="&#xf8;" d="M16 -32l192 176q-42 42 -53 103t-11 137q8 168 88 307t223.5 220t328.5 81q48 0 102.5 -14.5t96 -36t57.5 -45.5l192 176q16 -32 48 -64l-176 -160q79 -95 79 -237q0 -62 -15 -131q-13 -76 -61 -164.5t-127.5 -168t-187 -129.5t-232.5 -50q-98 0 -179.5 34.5t-124.5 77.5 l-192 -176q-16 32 -48 64zM340 363q0 -50 12 -91l592 544q-14 28 -65 62t-95 34q-96 0 -178 -52.5t-141.5 -136.5t-92 -179t-32.5 -181zM368 192q23 -68 77.5 -100t124.5 -32q65 0 124.5 24t89.5 60q114 106 158.5 226.5t44.5 238.5q0 63 -11 127z" />
<glyph unicode="&#xf9;" d="M190 242q0 14 2 46l128 688q48 -12 88 -12t88 12l-112 -624q-6 -39 -6 -72q0 -99 48 -148.5t123 -49.5q62 0 127.5 31.5t112 86t59.5 120.5l128 656q48 -12 88 -12t88 12l-192 -976q-48 12 -88 12t-88 -12l32 144q-62 -62 -108 -95t-106 -49t-154 -16q-258 0 -258 258z M520 1349q0 31 26 57t62 26q61 0 111 -72l208 -272h-80l-304 208q-23 23 -23 53z" />
<glyph unicode="&#xfa;" d="M190 242q0 14 2 46l128 688q48 -12 88 -12t88 12l-112 -624q-6 -39 -6 -72q0 -99 48 -148.5t123 -49.5q62 0 127.5 31.5t112 86t59.5 120.5l128 656q48 -12 88 -12t88 12l-192 -976q-48 12 -88 12t-88 -12l32 144q-62 -62 -108 -95t-106 -49t-154 -16q-258 0 -258 258z M513 1072l336 288q68 61 126 61q27 0 43 -14t16 -37q0 -25 -21.5 -52.5t-67.5 -53.5l-336 -192h-96z" />
<glyph unicode="&#xfb;" d="M190 242q0 14 2 46l128 688q48 -12 88 -12t88 12l-112 -624q-6 -39 -6 -72q0 -99 48 -148.5t123 -49.5q62 0 127.5 31.5t112 86t59.5 120.5l128 656q48 -12 88 -12t88 12l-192 -976q-48 12 -88 12t-88 -12l32 144q-62 -62 -108 -95t-106 -49t-154 -16q-258 0 -258 258z M416 1088l320 352h128l192 -352h-80l-192 224l-288 -224h-80z" />
<glyph unicode="&#xfc;" d="M190 242q0 14 2 46l128 688q48 -12 88 -12t88 12l-112 -624q-6 -39 -6 -72q0 -99 48 -148.5t123 -49.5q62 0 127.5 31.5t112 86t59.5 120.5l128 656q48 -12 88 -12t88 12l-192 -976q-48 12 -88 12t-88 -12l32 144q-62 -62 -108 -95t-106 -49t-154 -16q-258 0 -258 258z M444 1204q0 8 4 28q11 46 44 71t70 25q34 0 56 -23.5t22 -72.5q-10 -53 -42 -80.5t-70 -27.5q-35 0 -59.5 22t-24.5 58zM845 1203q0 14 3 29q11 48 40.5 72t64.5 24q37 0 62 -24t25 -72q-6 -51 -39 -79.5t-75 -28.5q-34 0 -57.5 21t-23.5 58z" />
<glyph unicode="&#xfd;" horiz-adv-x="1024" />
<glyph unicode="&#xfe;" horiz-adv-x="1137" />
<glyph unicode="&#xff;" horiz-adv-x="1024" d="M48 -544l400 544q-34 164 -61.5 287t-67 284t-59 238.5t-36.5 150.5q48 -12 104 -12t104 12q11 -80 33.5 -203.5t38.5 -201.5t41.5 -199t30.5 -148q53 75 112 166.5t123.5 199.5t110.5 186.5t118 199.5q36 -12 72 -12t72 12l-976 -1504q-36 12 -80 12t-80 -12zM444 1204 q0 8 4 28q11 46 44 71t70 25q34 0 56 -23.5t22 -72.5q-10 -53 -42 -80.5t-70 -27.5q-35 0 -59.5 22t-24.5 58zM845 1203q0 14 3 29q11 48 40.5 72t64.5 24q37 0 62 -24t25 -72q-6 -51 -39 -79.5t-75 -28.5q-34 0 -57.5 21t-23.5 58z" />
<glyph unicode="&#x152;" horiz-adv-x="2032" d="M160 576q11 201 91 363t209.5 275.5t280.5 170t301 56.5q10 0 16.5 -0.5t13.5 -0.5q67 0 155.5 -17t172.5 -63.5t136 -127.5l16 176h672q-32 -96 -32 -144q-88 22 -180 27t-300 5l-96 -496h224q160 0 224 16q-16 -48 -16 -144q-80 16 -208 16h-240l-112 -576 q39 -7 116 -7q137 0 396 23q-23 -48 -23 -93q0 -22 7 -35h-704l32 192q-52 -63 -123.5 -107t-146 -68.5t-155 -36.5t-151.5 -12q-242 0 -369.5 99.5t-167 233t-39.5 275.5zM350 514q0 -133 51.5 -236.5t146 -163.5t220.5 -66h22q142 0 256.5 68t195 173.5t131 226.5 t67.5 220q15 90 15 167q0 92 -19 168.5t-64.5 139.5t-120.5 98.5t-185 35.5q-8 0 -13.5 -0.5t-12.5 -0.5q-244 -12 -402.5 -156t-253.5 -452q-34 -117 -34 -222z" />
<glyph unicode="&#x153;" horiz-adv-x="1808" d="M144 416q12 128 68 236t141.5 183t193.5 116t221 41q147 0 214 -44t138 -132q89 89 181.5 132.5t218.5 43.5q134 0 212.5 -41.5t108.5 -108t30 -149.5q0 -51 -10.5 -110t-20.5 -103q-80 16 -288 16h-416q-25 -77 -25 -148q0 -115 68.5 -191.5t212.5 -76.5q224 0 368 144 l-32 -112q-54 -64 -165 -96t-203 -32q-34 -2 -48 -2q-102 0 -168 26.5t-102 64t-66 87.5q-25 -48 -65.5 -88.5t-130.5 -72t-236 -31.5q-130 0 -212.5 40.5t-122 105t-52.5 139t-13 163.5zM328 349q0 -132 59 -216.5t173 -84.5q127 0 226 90t152.5 226t53.5 260 q0 288 -240 288q-105 0 -197.5 -80.5t-151.5 -192.5t-67 -191q-8 -54 -8 -99zM1152 576h544q12 57 12 114q0 114 -55 168t-149 54q-240 0 -352 -336z" />
<glyph unicode="&#x2c6;" horiz-adv-x="672" d="M240 1088l320 352h128l192 -352h-80l-192 224l-288 -224h-80z" />
<glyph unicode="&#x2dc;" horiz-adv-x="672" d="M208 1136q65 130 123.5 169t132.5 39q12 2 19 2q31 0 64.5 -14t76 -40.5t59.5 -35t37 -8.5q88 0 144 112h64q-8 -42 -46 -95t-94.5 -91t-115.5 -38q-37 0 -67.5 12.5t-68.5 37t-63 35.5t-57 11q-30 0 -53 -13t-46 -36.5t-45 -46.5h-64z" />
<glyph unicode="&#x2000;" horiz-adv-x="956" />
<glyph unicode="&#x2001;" horiz-adv-x="1913" />
<glyph unicode="&#x2002;" horiz-adv-x="956" />
<glyph unicode="&#x2003;" horiz-adv-x="1913" />
<glyph unicode="&#x2004;" horiz-adv-x="637" />
<glyph unicode="&#x2005;" horiz-adv-x="478" />
<glyph unicode="&#x2006;" horiz-adv-x="318" />
<glyph unicode="&#x2007;" horiz-adv-x="318" />
<glyph unicode="&#x2008;" horiz-adv-x="239" />
<glyph unicode="&#x2009;" horiz-adv-x="382" />
<glyph unicode="&#x200a;" horiz-adv-x="106" />
<glyph unicode="&#x2010;" horiz-adv-x="672" d="M160 384l32 144h512l-32 -144h-512z" />
<glyph unicode="&#x2011;" horiz-adv-x="672" d="M160 384l32 144h512l-32 -144h-512z" />
<glyph unicode="&#x2012;" horiz-adv-x="672" d="M160 384l32 144h512l-32 -144h-512z" />
<glyph unicode="&#x2013;" horiz-adv-x="1024" d="M80 416l16 96h1040l-16 -96h-1040z" />
<glyph unicode="&#x2014;" horiz-adv-x="2032" d="M80 416l16 112h2032l-16 -112h-2032z" />
<glyph unicode="&#x2018;" horiz-adv-x="560" d="M306 883q0 37 30 77l352 448l48 -16l-256 -496q-21 -43 -49 -63.5t-57 -20.5q-30 0 -49 20t-19 51z" />
<glyph unicode="&#x201c;" horiz-adv-x="896" d="M306 899q0 37 30 77l352 448l48 -16l-256 -496q-21 -43 -49 -63.5t-57 -20.5q-30 0 -49 20t-19 51zM658 899q0 37 30 77l352 448l48 -16l-256 -496q-21 -43 -49 -63.5t-57 -20.5q-30 0 -49 20t-19 51z" />
<glyph unicode="&#x201d;" horiz-adv-x="896" d="M272 831l256 496q37 68 91 68q28 0 48.5 -21.5t20.5 -51.5q0 -37 -32 -75l-352 -432zM624 831l256 496q37 68 91 68q28 0 48.5 -21.5t20.5 -51.5q0 -37 -32 -75l-352 -432z" />
<glyph unicode="&#x201e;" horiz-adv-x="896" d="M0 -352l224 432q38 80 78.5 117.5t76.5 37.5q26 0 42.5 -19t16.5 -48q0 -43 -38 -88l-352 -432h-48zM352 -352l224 432q38 80 78.5 117.5t76.5 37.5q26 0 42.5 -19t16.5 -48q0 -43 -38 -88l-352 -432h-48z" />
<glyph unicode="&#x2022;" horiz-adv-x="1232" d="M256 512q13 65 58 102.5t96 37.5q44 0 73 -30.5t29 -93.5q-11 -66 -51.5 -100t-90.5 -34q-47 0 -80.5 31t-33.5 87z" />
<glyph unicode="&#x2026;" horiz-adv-x="2032" d="M256 80q7 74 51.5 115.5t99.5 41.5q44 0 74.5 -28t30.5 -81q-6 -74 -48.5 -115.5t-95.5 -41.5q-42 0 -74 28t-38 81zM928 80q7 74 51.5 115.5t99.5 41.5q44 0 74.5 -28t30.5 -81q-6 -74 -48.5 -115.5t-95.5 -41.5q-42 0 -74 28t-38 81zM1599 80q7 74 51.5 115.5 t99.5 41.5q44 0 74.5 -28t30.5 -81q-6 -74 -48.5 -115.5t-95.5 -41.5q-42 0 -74 28t-38 81z" />
<glyph unicode="&#x202f;" horiz-adv-x="382" />
<glyph unicode="&#x2039;" horiz-adv-x="672" d="M256 464l352 384q5 -11 15 -25t24 -24t25 -15l-304 -320l160 -336q-24 -10 -50 -22t-46 -42z" />
<glyph unicode="&#x203a;" horiz-adv-x="672" d="M192 128l288 320l-160 336q33 0 50.5 10t45.5 38l176 -400l-320 -368q-48 48 -80 64z" />
<glyph unicode="&#x205f;" horiz-adv-x="478" />
<glyph unicode="&#x2122;" horiz-adv-x="1936" d="M352 1312l16 80h640l-16 -80q-64 16 -256 16l-144 -784q-24 12 -56 12t-56 -12l144 784q-160 0 -272 -16zM976 544l272 848h32q21 -70 50.5 -153.5t64.5 -178t63 -169t46 -123.5l464 624h32l-64 -848q-24 12 -58 12t-70 -12q22 130 35.5 273t28.5 351q-36 -52 -104 -145 t-133 -183.5t-107.5 -156t-71.5 -123.5h-16l-192 608q-16 -52 -47.5 -150t-56 -179t-43 -154t-29.5 -141q-24 12 -48 12t-48 -12z" />
<glyph unicode="&#x25fc;" horiz-adv-x="975" d="M0 0v975h975v-975h-975z" />
</font>
</defs>
</svg>
