<?xml version="1.0" encoding="utf-8"?>
<!-- Generator: Adobe Illustrator 17.0.0, SVG Export Plug-In . SVG Version: 6.00 Build 0)  -->
<!DOCTYPE svg PUBLIC "-//W3C//DTD SVG 1.1//EN" "http://www.w3.org/Graphics/SVG/1.1/DTD/svg11.dtd">
<svg version="1.1" id="Livello_1" xmlns="http://www.w3.org/2000/svg" xmlns:xlink="http://www.w3.org/1999/xlink" x="0px" y="0px"
	 width="189.89px" height="25.744px" viewBox="0 0 189.89 25.744" enable-background="new 0 0 189.89 25.744" xml:space="preserve">
<g>
	<g>
		<defs>
			<rect id="SVGID_7_" x="0" y="0" width="185.389" height="25.744"/>
		</defs>
		<clipPath id="SVGID_1_">
			<use xlink:href="#SVGID_7_"  overflow="visible"/>
		</clipPath>
		<path clip-path="url(#SVGID_1_)" fill="#00579E" d="M36.47,19.249h2.851c3.187,0,6.546-0.49,6.546-2.934
			c0-2.487-3.799-2.849-6.919-2.849H36.47V19.249z M36.47,11.935h1.086c3.224,0,5.971-0.234,5.971-2.721
			c0-2.423-2.444-2.678-5.937-2.678H36.47V11.935z M33.621,4.878h4.206c4.648,0,8.549,1.062,8.549,4.337
			c0,1.297-0.78,2.401-2.511,3.125c3.054,0.469,4.851,2.188,4.851,4.103c0,3.189-4.103,4.465-9.158,4.465h-5.937V4.878z"/>
	</g>
	<rect x="52.958" y="4.877" fill="#00579E" width="2.849" height="16.029"/>
	<g>
		<defs>
			<rect id="SVGID_9_" x="0" y="0" width="185.389" height="25.744"/>
		</defs>
		<clipPath id="SVGID_2_">
			<use xlink:href="#SVGID_9_"  overflow="visible"/>
		</clipPath>
		<path clip-path="url(#SVGID_2_)" fill="#00579E" d="M62.556,12.893c0,3.615,4.683,6.634,10.481,6.634
			c5.801,0,10.484-3.019,10.484-6.634c0-3.634-4.614-6.634-10.484-6.634C67.17,6.258,62.556,9.259,62.556,12.893 M86.37,12.914
			c0,4.614-6.038,8.269-13.333,8.269c-7.292,0-13.33-3.655-13.33-8.269c0-4.592,6.038-8.312,13.33-8.312
			C80.332,4.602,86.37,8.321,86.37,12.914"/>
		<path clip-path="url(#SVGID_2_)" fill="#00579E" d="M114.016,12.85c0.069,2.17-0.306,3.953-2.646,5.655
			c-2.34,1.701-5.902,2.678-9.464,2.678c-7.191,0-13.162-3.74-13.162-8.248c0-4.592,5.971-8.336,13.333-8.336
			c4.478,0,8.107,1.257,10.822,3.466l-2.071,1.211c-2.138-1.89-5.021-3.019-8.785-3.019c-5.836,0-10.449,3.083-10.449,6.698
			c0,1.701,1.086,3.317,2.987,4.528c1.866,1.169,4.579,2.039,7.26,2.039c4.443,0,9.124-2.039,9.124-5.016h-7.598V12.85H114.016z"/>
	</g>
	<polygon fill="#00579E" points="118.052,4.878 131.315,4.878 131.315,6.536 120.9,6.536 120.9,11.299 131.012,11.299 
		131.012,12.958 120.9,12.958 120.9,19.249 131.315,19.249 131.315,20.907 118.052,20.907 	"/>
	<polygon fill="#00579E" points="136.336,4.197 156.282,17.293 156.282,4.879 159.133,4.879 159.133,21.629 139.185,8.555 
		139.185,20.908 136.336,20.908 	"/>
	<path fill="#00579E" d="M173.82,8.278l-4.377,6.421h8.652L173.82,8.278z M168.291,16.358l-3.086,4.55h-3.123l11.807-16.796
		l11.498,16.796h-3.155l-3.019-4.55H168.291z"/>
	<g>
		<defs>
			<rect id="SVGID_11_" x="0" y="0" width="185.389" height="25.744"/>
		</defs>
		<clipPath id="SVGID_3_">
			<use xlink:href="#SVGID_11_"  overflow="visible"/>
		</clipPath>
		<path clip-path="url(#SVGID_3_)" fill="#00579E" d="M18.727,20.658c-4.023,0-6.956-0.008-9.818-0.037
			c-1.257-0.013-1.797-0.037-2.572-0.037c-0.772,0-1.246,0.093-1.246,0.186c0,0.16,0.66,0.338,1.398,0.338
			c0.093,0,0.138,0.043,0.138,0.114s-0.043,0.12-0.186,0.12c-0.192,0-1.054,0.016-1.904-0.096c-0.849-0.114-0.988-0.413-0.988-0.57
			c0-0.154,0.093-0.508,1.512-0.615c1.416-0.104,5.66-0.136,9.414-0.202s4.387-1.438,4.387-2.654c0-1.438-1.403-2.409-4.033-2.409
			h-9.85c-0.921,0-1.43-0.474-1.43-0.788c0-0.311,0.229-0.777,1.744-0.777c0.232,0,0.477,0.021,0.562,0.029
			c0.117,0.013,0.16,0.072,0.16,0.128c0,0.056-0.029,0.117-0.202,0.117H5.525c-0.53,0-0.9,0.12-0.9,0.311
			c0,0.186,0.375,0.25,0.642,0.25h13.149c3.171,0,5.516,1.089,5.516,3.205C23.932,19.015,22.747,20.658,18.727,20.658
			 M14.664,21.637c-0.447,0.08-1.323,0.506-2.279,1.531c-1.017,1.092-1.283,2.095-1.312,2.22c-0.016,0.069-0.043,0.13-0.13,0.13
			c-0.075,0-0.117-0.075-0.13-0.133c-0.048-0.208-0.386-1.241-1.294-2.236c-0.905-0.993-2.085-1.47-2.239-1.507
			c-0.152-0.035-0.186-0.064-0.186-0.122s0.043-0.128,0.128-0.128h7.444c0.091,0,0.13,0.059,0.13,0.114
			C14.795,21.563,14.736,21.624,14.664,21.637 M6.606,5.621c0.083,0,0.165,0.035,0.165,0.125c0,0.093-0.077,0.117-0.168,0.12
			C6.51,5.869,6.049,5.888,5.615,5.975C5.179,6.066,4.947,6.292,5.719,6.327c0.775,0.035,1.376,0.051,4.744,0
			c3.368-0.051,5.38-0.213,7.758,0.682c1.707,0.642,2.055,1.741,2.055,2.596c0,0.735-0.17,3.346-6.065,3.346
			c-5.892,0-9.683,0.021-9.765,0.021s-0.154-0.048-0.154-0.117s0.021-0.128,0.178-0.141c0.157-0.016,5.87-0.479,7.356-0.54
			c1.986-0.083,3.184-1.001,3.184-2.556c0-1.699-1.414-2.542-3.171-2.574c-1.757-0.032-4.808-0.101-6.121-0.146
			c-1.312-0.043-2.103-0.221-2.103-0.62C3.616,5.877,4.202,5.621,6.606,5.621 M8.632,5.395c0.45-0.08,2.199-0.519,3.589-1.858
			c1.387-1.336,1.32-3.2,1.32-3.272c0-0.072,0.043-0.13,0.13-0.13c0.091,0,0.128,0.053,0.128,0.117c0,1.48,0.527,2.553,1.683,3.599
			c1.153,1.044,3.022,1.512,3.173,1.539c0.154,0.024,0.186,0.061,0.186,0.122c0,0.059-0.043,0.125-0.125,0.125H8.632
			c-0.088,0-0.13-0.056-0.13-0.112C8.501,5.467,8.56,5.408,8.632,5.395 M13.671-0.001c-6.925,0-13.671,3.804-13.671,12.872v12.872
			h12.403c7.38,0,13.341-4.35,13.341-12.63V-0.001H13.671z"/>
	</g>
</g>
</svg>
